<svg xml:space="preserve" width="20" height="20" xmlns="http://www.w3.org/2000/svg">
  <path d="M2.287 4.29c1.778.494 3.061 1.877 3.555 3.555.099.198.296.198.395 0 .493-1.777 1.876-3.06 3.554-3.554.198-.099.198-.296 0-.395A5.341 5.341 0 0 1 6.237.34c-.099-.197-.296-.197-.395 0a5.341 5.341 0 0 1-3.555 3.555c-.296.099-.296.296 0 .395ZM19.665 9.721a7.563 7.563 0 0 1-5.43-5.43.309.309 0 0 0-.593 0 7.563 7.563 0 0 1-5.43 5.43.309.309 0 0 0 0 .593c2.567.69 4.64 2.764 5.43 5.43a.309.309 0 0 0 .592 0c.692-2.567 2.765-4.64 5.43-5.43a.309.309 0 0 0 0-.593zM7.817 15.744c-1.778-.494-3.061-1.876-3.555-3.554-.099-.198-.296-.198-.395 0-.494 1.777-1.876 3.06-3.554 3.554-.198.099-.198.296 0 .395 1.777.494 3.06 1.876 3.554 3.554.099.198.296.198.395 0 .494-1.777 1.876-3.06 3.555-3.554.296-.099.296-.296 0-.395z"/>
</svg>
