<svg xml:space="preserve" width="20" height="20" xmlns="http://www.w3.org/2000/svg">
  <path d="M19.51 2.093h-4.75C14.364.906 13.276.115 11.99.115c-1.287 0-2.376.791-2.772 1.978H.51a.426.426 0 0 0-.395.396v1.187c0 .198.197.396.395.396h8.708c.396 1.187 1.485 1.979 2.771 1.979 1.287 0 2.375-.792 2.77-1.979h4.75a.426.426 0 0 0 .397-.396V2.49a.426.426 0 0 0-.396-.396ZM19.51 9.02H7.833c-.396-1.188-1.484-1.98-2.77-1.98-1.287 0-2.376.792-2.771 1.98H.51a.426.426 0 0 0-.395.395v1.187c0 .198.197.396.395.396h1.782c.395 1.187 1.484 1.979 2.77 1.979 1.287 0 2.375-.792 2.771-1.98H19.51a.426.426 0 0 0 .396-.395V9.415a.426.426 0 0 0-.396-.396ZM19.51 15.945h-1.781c-.396-1.187-1.485-1.979-2.771-1.979-1.287 0-2.375.792-2.77 1.979H.51a.426.426 0 0 0-.395.396v1.187c0 .198.197.396.395.396h11.677c.396 1.187 1.484 1.978 2.77 1.978 1.287 0 2.376-.791 2.772-1.978h1.78a.426.426 0 0 0 .397-.396V16.34a.426.426 0 0 0-.396-.396Z"/>
</svg>
