<svg xml:space="preserve" width="20" height="20" xmlns="http://www.w3.org/2000/svg">
  <path d="m19.255 16.383-9.121-9.121c-.294-.196-.392-.589-.294-.883.196-.784.196-1.569 0-2.452-.295-1.47-1.373-2.746-2.845-3.334A4.95 4.95 0 0 0 3.661.397c-.098 0-.196.196-.098.294l1.863 1.863c.687.785.883 1.864.294 2.746-.686.981-2.157 1.08-2.942.295L.817 3.633c-.098-.196-.295-.196-.393 0-.294.98-.392 2.158.098 3.335A4.993 4.993 0 0 0 3.857 9.91c.883.196 1.667.196 2.452 0 .294-.098.686 0 .883.294l9.12 9.121c.883.883 2.257.785 2.943-.294.785-.784.687-1.961 0-2.648zm-.686 2.158a.948.948 0 0 1-1.374 0 .948.948 0 0 1 0-1.373.948.948 0 0 1 1.374 0 .948.948 0 0 1 0 1.373z" style="stroke-width:.980768"/>
</svg>
