<?xml version="1.0" encoding="UTF-8" standalone="no"?>
<!-- Created with Inkscape (http://www.inkscape.org/) -->

<svg
   xmlns:dc="http://purl.org/dc/elements/1.1/"
   xmlns:cc="http://creativecommons.org/ns#"
   xmlns:rdf="http://www.w3.org/1999/02/22-rdf-syntax-ns#"
   xmlns:svg="http://www.w3.org/2000/svg"
   xmlns="http://www.w3.org/2000/svg"
   xmlns:sodipodi="http://sodipodi.sourceforge.net/DTD/sodipodi-0.dtd"
   xmlns:inkscape="http://www.inkscape.org/namespaces/inkscape"
   width="240"
   height="240"
   viewBox="0 0 63.5 63.500002"
   version="1.1"
   id="svg1180"
   inkscape:version="0.92.3 (2405546, 2018-03-11)"
   sodipodi:docname="curly.svg">
  <defs
     id="defs1174">
    <clipPath
       clipPathUnits="userSpaceOnUse"
       id="clipPath166">
      <path
         d="M 541.779,0 H 722.576 V 180.799 H 541.779 Z"
         id="path164"
         inkscape:connector-curvature="0" />
    </clipPath>
  </defs>
  <sodipodi:namedview
     id="base"
     pagecolor="#ffffff"
     bordercolor="#666666"
     borderopacity="1.0"
     inkscape:pageopacity="0.0"
     inkscape:pageshadow="2"
     inkscape:zoom="0.70710678"
     inkscape:cx="-293.70462"
     inkscape:cy="286.8699"
     inkscape:document-units="mm"
     inkscape:current-layer="layer1"
     showgrid="false"
     units="px"
     inkscape:window-width="1263"
     inkscape:window-height="911"
     inkscape:window-x="1145"
     inkscape:window-y="382"
     inkscape:window-maximized="0" />
  <metadata
     id="metadata1177">
    <rdf:RDF>
      <cc:Work
         rdf:about="">
        <dc:format>image/svg+xml</dc:format>
        <dc:type
           rdf:resource="http://purl.org/dc/dcmitype/StillImage" />
        <dc:title></dc:title>
      </cc:Work>
    </rdf:RDF>
  </metadata>
  <g
     inkscape:label="Layer 1"
     inkscape:groupmode="layer"
     id="layer1"
     transform="translate(0,-233.49998)">
    <g
       id="g3181"
       transform="translate(109.59993,44.29193)">
      <path
         inkscape:connector-curvature="0"
         id="path156"
         style="fill:#82e22e;fill-opacity:1;fill-rule:nonzero;stroke:none;stroke-width:0.35277775"
         d="m -45.818766,189.20805 h -63.781164 v 63.78187 h 63.781164 z" />
      <path
         inkscape:connector-curvature="0"
         id="path214"
         style="fill:#231f20;fill-opacity:1;fill-rule:nonzero;stroke:none;stroke-width:0.35277775"
         d="m -83.797189,242.34629 c -1.634419,-1.6256 -2.451453,-4.1603 -2.451453,-7.60483 v -5.77285 c 0,-1.15993 -0.294569,-1.9551 -0.883002,-2.38584 -0.588786,-0.43039 -1.735667,-0.64593 -3.440289,-0.64593 v -7.11694 c 1.686983,0 2.829278,-0.21555 3.426883,-0.64594 0.597606,-0.43074 0.896408,-1.2259 0.896408,-2.38583 v -5.77286 c 0,-3.46181 0.82162,-6.00146 2.464506,-7.61824 1.643238,-1.61642 4.239684,-2.42499 7.789686,-2.42499 h 4.929365 v 7.16985 h -3.189465 c -2.056342,0 -3.084335,1.09855 -3.084335,3.2953 v 5.08741 c 0,2.05599 -0.351367,3.61139 -1.054455,4.66584 -0.703085,1.05445 -1.880658,1.76636 -3.532362,2.13536 v 0.10513 c 1.651704,0.35172 2.829277,1.05904 3.532362,2.12196 0.703088,1.06327 1.054455,2.62325 1.054455,4.67924 v 5.06095 c 0,2.19675 1.027993,3.2953 3.084335,3.2953 h 3.189465 v 7.19631 h -4.929365 c -3.567642,0 -6.168319,-0.8128 -7.802739,-2.4384" />
    </g>
  </g>
</svg>
