<?xml version="1.0" encoding="UTF-8" standalone="no"?>
<!-- Created with Inkscape (http://www.inkscape.org/) -->

<svg
   xmlns:dc="http://purl.org/dc/elements/1.1/"
   xmlns:cc="http://creativecommons.org/ns#"
   xmlns:rdf="http://www.w3.org/1999/02/22-rdf-syntax-ns#"
   xmlns:svg="http://www.w3.org/2000/svg"
   xmlns="http://www.w3.org/2000/svg"
   xmlns:sodipodi="http://sodipodi.sourceforge.net/DTD/sodipodi-0.dtd"
   xmlns:inkscape="http://www.inkscape.org/namespaces/inkscape"
   width="240"
   height="240"
   viewBox="0 0 63.5 63.500002"
   version="1.1"
   id="svg1180"
   inkscape:version="0.92.3 (2405546, 2018-03-11)"
   sodipodi:docname="pound.svg">
  <defs
     id="defs1174" />
  <sodipodi:namedview
     id="base"
     pagecolor="#ffffff"
     bordercolor="#666666"
     borderopacity="1.0"
     inkscape:pageopacity="0.0"
     inkscape:pageshadow="2"
     inkscape:zoom="0.70710678"
     inkscape:cx="-46.924353"
     inkscape:cy="286.8699"
     inkscape:document-units="mm"
     inkscape:current-layer="layer1"
     showgrid="false"
     units="px"
     inkscape:window-width="1263"
     inkscape:window-height="911"
     inkscape:window-x="1145"
     inkscape:window-y="382"
     inkscape:window-maximized="0" />
  <metadata
     id="metadata1177">
    <rdf:RDF>
      <cc:Work
         rdf:about="">
        <dc:format>image/svg+xml</dc:format>
        <dc:type
           rdf:resource="http://purl.org/dc/dcmitype/StillImage" />
        <dc:title></dc:title>
      </cc:Work>
    </rdf:RDF>
  </metadata>
  <g
     inkscape:label="Layer 1"
     inkscape:groupmode="layer"
     id="layer1"
     transform="translate(0,-233.49998)">
    <g
       id="g2184"
       transform="translate(44.305983,44.29193)">
      <path
         inkscape:connector-curvature="0"
         id="path74"
         style="fill:#282828;fill-opacity:1;fill-rule:nonzero;stroke:none;stroke-width:0.35277775"
         d="m 19.475179,189.20805 h -63.781162 v 63.78187 h 63.781162 z" />
      <g
         transform="matrix(0.35277777,0,0,-0.35277777,-15.539107,224.61128)"
         id="g140">
        <path
           inkscape:connector-curvature="0"
           id="path142"
           style="fill:#e96926;fill-opacity:1;fill-rule:nonzero;stroke:none"
           d="m 0,0 h 16.074 l 2.861,17.1 H 2.988 Z M 18.614,-3 H -3.569 l 4.035,23.1 h 22.013 z m -6.883,-39.816 h 18.695 l 4.259,24.808 H 50.889 V -3 H 37.242 l 3.864,23.1 H 57.464 V 35.108 H 43.656 l 4.035,23.164 H 28.996 L 25.035,35.108 H 2.863 L 6.824,58.272 H -11.877 L -15.838,35.108 H -31.967 V 20.1 h 13.735 L -22.268,-3 h -16.125 v -15.008 h 13.57 l -4.11,-24.808 h 18.632 l 4.185,24.808 h 22.181 z m 21.225,-3 H 8.162 l 4.334,24.808 H -3.58 l -4.185,-24.808 h -24.706 l 4.11,24.808 H -41.393 V 0 h 16.603 l 2.988,17.1 h -13.165 v 21.008 h 16.599 l 3.961,23.164 H 10.38 L 6.419,38.108 h 16.086 l 3.961,23.164 H 51.259 L 47.224,38.108 h 13.24 V 17.1 H 43.646 L 40.786,0 H 53.889 V -21.008 H 37.214 Z" />
      </g>
    </g>
  </g>
</svg>
