<?xml version="1.0" encoding="utf-8"?>
<!-- Generator: Adobe Illustrator 24.3.0, SVG Export Plug-In . SVG Version: 6.00 Build 0)  -->
<svg version="1.1" id="Layer_1" xmlns="http://www.w3.org/2000/svg" xmlns:xlink="http://www.w3.org/1999/xlink" x="0px" y="0px"
	 viewBox="0 0 775.1 143.7" style="enable-background:new 0 0 775.1 143.7;" xml:space="preserve">
<style type="text/css">
	.st0{fill:#FFFFFF;}
</style>
<g>
	<g>
		<g>
			<g>
				<g>
					<rect x="64.2" y="21.4" class="st0" width="6.9" height="101.6"/>
				</g>
				<g>
					<rect x="43.2" y="21.4" class="st0" width="6.9" height="101.6"/>
				</g>
				<g>
					<rect x="53.7" y="21.4" class="st0" width="6.9" height="101.6"/>
				</g>
			</g>
			<g>
				<g>
					<rect x="138.4" y="21.4" class="st0" width="6.9" height="101.6"/>
				</g>
				<g>
					<rect x="117.4" y="21.4" class="st0" width="6.9" height="101.6"/>
				</g>
				<g>
					<rect x="127.9" y="21.4" class="st0" width="6.9" height="101.6"/>
				</g>
			</g>
			<polygon class="st0" points="113.6,76.9 75.3,21.4 75.3,64.9 113.6,121.1 			"/>
		</g>
	</g>
	<g>
		<g>
			
				<rect x="358.3" y="24.3" transform="matrix(0.7071 -0.7071 0.7071 0.7071 84.8344 267.518)" class="st0" width="14.2" height="14.2"/>
			<path class="st0" d="M365.3,48.5c1.8,0,3.2,1.4,3.2,3.2c0,1.8-1.4,3.2-3.2,3.2c-1.8,0-3.2-1.4-3.2-3.2
				C362.1,49.9,363.5,48.5,365.3,48.5 M365.3,41.6c-5.6,0-10.1,4.5-10.1,10.1c0,5.6,4.5,10.1,10.1,10.1c5.6,0,10.1-4.5,10.1-10.1
				C375.4,46.1,370.9,41.6,365.3,41.6L365.3,41.6z"/>
			<path class="st0" d="M365.3,68.7c1.8,0,3.2,1.4,3.2,3.2c0,1.8-1.4,3.2-3.2,3.2c-1.8,0-3.2-1.4-3.2-3.2
				C362.1,70.1,363.5,68.7,365.3,68.7 M365.3,61.8c-5.6,0-10.1,4.5-10.1,10.1c0,5.6,4.5,10.1,10.1,10.1c5.6,0,10.1-4.5,10.1-10.1
				C375.4,66.3,370.9,61.8,365.3,61.8L365.3,61.8z"/>
			<path class="st0" d="M365.3,88.9c1.8,0,3.2,1.4,3.2,3.2c0,1.8-1.4,3.2-3.2,3.2c-1.8,0-3.2-1.4-3.2-3.2
				C362.1,90.3,363.5,88.9,365.3,88.9 M365.3,82c-5.6,0-10.1,4.5-10.1,10.1c0,5.6,4.5,10.1,10.1,10.1c5.6,0,10.1-4.5,10.1-10.1
				C375.4,86.5,370.9,82,365.3,82L365.3,82z"/>
			<path class="st0" d="M365.3,109.2c1.8,0,3.2,1.4,3.2,3.2c0,1.8-1.4,3.2-3.2,3.2c-1.8,0-3.2-1.4-3.2-3.2
				C362.1,110.7,363.5,109.2,365.3,109.2 M365.3,102.3c-5.6,0-10.1,4.5-10.1,10.1c0,5.6,4.5,10.1,10.1,10.1
				c5.6,0,10.1-4.5,10.1-10.1C375.4,106.9,370.9,102.3,365.3,102.3L365.3,102.3z"/>
		</g>
	</g>
	<g>
		<polygon class="st0" points="303.4,123.7 294.4,114.7 285.4,123.7 280.5,118.8 294.4,105 308.2,118.8 		"/>
		<polygon class="st0" points="303.4,109.6 294.4,100.6 285.4,109.6 280.5,104.7 294.4,90.9 308.2,104.7 		"/>
		<polygon class="st0" points="303.4,95.5 294.4,86.5 285.4,95.5 280.5,90.6 294.4,76.8 308.2,90.6 		"/>
		<polygon class="st0" points="303.4,81.4 294.4,72.4 285.4,81.4 280.5,76.5 294.4,62.7 308.2,76.5 		"/>
		<polygon class="st0" points="303.4,67.3 294.4,58.3 285.4,67.3 280.5,62.4 294.4,48.5 308.2,62.4 		"/>
		<polygon class="st0" points="303.4,53.2 294.4,44.2 285.4,53.2 280.5,48.3 294.4,34.4 308.2,48.3 		"/>
		<polygon class="st0" points="321.4,39.1 312.4,30 303.4,39 294.4,30 285.4,39 276.3,30 267.3,39 255.9,27.6 260.8,22.7 
			267.3,29.3 276.4,20.3 285.4,29.3 294.4,20.3 303.4,29.3 312.4,20.3 321.4,29.3 328,22.7 332.9,27.6 		"/>
	</g>
	<g>
		<path class="st0" d="M193.1,31.6c0,5.6-4.5,10.1-10.1,10.1c-5.6,0-10.1-4.5-10.1-10.1c0-5.6,4.5-10.1,10.1-10.1
			C188.6,21.5,193.1,26.1,193.1,31.6z"/>
		<path class="st0" d="M213.3,31.6c0,5.6-4.5,10.1-10.1,10.1c-5.6,0-10.1-4.5-10.1-10.1c0-5.6,4.5-10.1,10.1-10.1
			C208.8,21.5,213.3,26.1,213.3,31.6z"/>
		<path class="st0" d="M233.5,31.6c0,5.6-4.5,10.1-10.1,10.1c-5.6,0-10.1-4.5-10.1-10.1c0-5.6,4.5-10.1,10.1-10.1
			C229,21.5,233.5,26.1,233.5,31.6z"/>
		<path class="st0" d="M183,48.6c1.8,0,3.2,1.4,3.2,3.2c0,1.8-1.4,3.2-3.2,3.2c-1.8,0-3.2-1.4-3.2-3.2
			C179.8,50.1,181.2,48.6,183,48.6 M183,41.7c-5.6,0-10.1,4.5-10.1,10.1c0,5.6,4.5,10.1,10.1,10.1c5.6,0,10.1-4.5,10.1-10.1
			C193.1,46.3,188.6,41.7,183,41.7L183,41.7z"/>
		<path class="st0" d="M193.1,72c0,5.6-4.5,10.1-10.1,10.1c-5.6,0-10.1-4.5-10.1-10.1c0-5.6,4.5-10.1,10.1-10.1
			C188.6,61.9,193.1,66.5,193.1,72z"/>
		<path class="st0" d="M213.3,72c0,5.6-4.5,10.1-10.1,10.1c-5.6,0-10.1-4.5-10.1-10.1c0-5.6,4.5-10.1,10.1-10.1
			C208.8,61.9,213.3,66.5,213.3,72z"/>
		<path class="st0" d="M233.5,72c0,5.6-4.5,10.1-10.1,10.1c-5.6,0-10.1-4.5-10.1-10.1c0-5.6,4.5-10.1,10.1-10.1
			C229,61.9,233.5,66.5,233.5,72z"/>
		<path class="st0" d="M193.1,92.2c0,5.6-4.5,10.1-10.1,10.1c-5.6,0-10.1-4.5-10.1-10.1s4.5-10.1,10.1-10.1
			C188.6,82.1,193.1,86.7,193.1,92.2z"/>
		<path class="st0" d="M193.1,112.6c0,5.6-4.5,10.1-10.1,10.1c-5.6,0-10.1-4.5-10.1-10.1c0-5.6,4.5-10.1,10.1-10.1
			C188.6,102.5,193.1,107,193.1,112.6z"/>
		<path class="st0" d="M203.2,109.4c1.8,0,3.2,1.4,3.2,3.2c0,1.8-1.4,3.2-3.2,3.2c-1.8,0-3.2-1.5-3.2-3.2
			C200,110.8,201.4,109.4,203.2,109.4 M203.2,102.5c-5.6,0-10.1,4.5-10.1,10.1c0,5.6,4.5,10.1,10.1,10.1c5.6,0,10.1-4.5,10.1-10.1
			C213.3,107,208.8,102.5,203.2,102.5L203.2,102.5z"/>
		<path class="st0" d="M233.5,112.6c0,5.6-4.5,10.1-10.1,10.1c-5.6,0-10.1-4.5-10.1-10.1c0-5.6,4.5-10.1,10.1-10.1
			C229,102.5,233.5,107,233.5,112.6z"/>
	</g>
	<g>
		<path class="st0" d="M552.5,31.6c0,5.6-4.5,10.1-10.1,10.1c-5.6,0-10.1-4.5-10.1-10.1c0-5.6,4.5-10.1,10.1-10.1
			C548,21.5,552.5,26.1,552.5,31.6z"/>
		<path class="st0" d="M572.7,31.6c0,5.6-4.5,10.1-10.1,10.1c-5.6,0-10.1-4.5-10.1-10.1c0-5.6,4.5-10.1,10.1-10.1
			C568.2,21.5,572.7,26.1,572.7,31.6z"/>
		<path class="st0" d="M592.9,31.6c0,5.6-4.5,10.1-10.1,10.1s-10.1-4.5-10.1-10.1c0-5.6,4.5-10.1,10.1-10.1S592.9,26.1,592.9,31.6z"
			/>
		<path class="st0" d="M542.4,48.6c1.8,0,3.2,1.4,3.2,3.2c0,1.8-1.4,3.2-3.2,3.2c-1.8,0-3.2-1.4-3.2-3.2
			C539.2,50.1,540.6,48.6,542.4,48.6 M542.4,41.7c-5.6,0-10.1,4.5-10.1,10.1c0,5.6,4.5,10.1,10.1,10.1c5.6,0,10.1-4.5,10.1-10.1
			C552.5,46.3,548,41.7,542.4,41.7L542.4,41.7z"/>
		<path class="st0" d="M552.5,72c0,5.6-4.5,10.1-10.1,10.1c-5.6,0-10.1-4.5-10.1-10.1c0-5.6,4.5-10.1,10.1-10.1
			C548,61.9,552.5,66.5,552.5,72z"/>
		<path class="st0" d="M572.7,72c0,5.6-4.5,10.1-10.1,10.1c-5.6,0-10.1-4.5-10.1-10.1c0-5.6,4.5-10.1,10.1-10.1
			C568.2,61.9,572.7,66.5,572.7,72z"/>
		<path class="st0" d="M592.9,72c0,5.6-4.5,10.1-10.1,10.1s-10.1-4.5-10.1-10.1c0-5.6,4.5-10.1,10.1-10.1S592.9,66.5,592.9,72z"/>
		<path class="st0" d="M552.5,92.2c0,5.6-4.5,10.1-10.1,10.1c-5.6,0-10.1-4.5-10.1-10.1s4.5-10.1,10.1-10.1
			C548,82.1,552.5,86.7,552.5,92.2z"/>
		<path class="st0" d="M552.5,112.6c0,5.6-4.5,10.1-10.1,10.1c-5.6,0-10.1-4.5-10.1-10.1c0-5.6,4.5-10.1,10.1-10.1
			C548,102.5,552.5,107,552.5,112.6z"/>
		<path class="st0" d="M562.6,109.4c1.8,0,3.2,1.4,3.2,3.2c0,1.8-1.4,3.2-3.2,3.2c-1.8,0-3.2-1.5-3.2-3.2
			C559.4,110.8,560.8,109.4,562.6,109.4 M562.6,102.5c-5.6,0-10.1,4.5-10.1,10.1c0,5.6,4.5,10.1,10.1,10.1c5.6,0,10.1-4.5,10.1-10.1
			C572.7,107,568.2,102.5,562.6,102.5L562.6,102.5z"/>
		<path class="st0" d="M592.9,112.6c0,5.6-4.5,10.1-10.1,10.1s-10.1-4.5-10.1-10.1c0-5.6,4.5-10.1,10.1-10.1S592.9,107,592.9,112.6z
			"/>
	</g>
	<g>
		<g>
			<g>
				<rect x="624.7" y="105.5" class="st0" width="26.1" height="6.9"/>
			</g>
			<g>
				<rect x="624.7" y="116.1" class="st0" width="26.1" height="6.9"/>
			</g>
			<g>
				<rect x="624.7" y="84.5" class="st0" width="26.1" height="6.9"/>
			</g>
			<g>
				<rect x="624.7" y="95" class="st0" width="26.1" height="6.9"/>
			</g>
			<g>
				<rect x="624.7" y="63.5" class="st0" width="26.1" height="6.9"/>
			</g>
			<g>
				<rect x="624.7" y="74" class="st0" width="26.1" height="6.9"/>
			</g>
			<g>
				<rect x="624.7" y="42.5" class="st0" width="26.1" height="6.9"/>
			</g>
			<g>
				<rect x="624.7" y="53" class="st0" width="26.1" height="6.9"/>
			</g>
			<g>
				<rect x="624.7" y="21.4" class="st0" width="26.1" height="6.9"/>
			</g>
			<g>
				<rect x="624.7" y="31.9" class="st0" width="26.1" height="6.9"/>
			</g>
		</g>
		<g>
			<g>
				<rect x="696.6" y="105.5" class="st0" width="26.1" height="6.9"/>
			</g>
			<g>
				<rect x="696.6" y="116.1" class="st0" width="26.1" height="6.9"/>
			</g>
			<g>
				<rect x="696.6" y="84.5" class="st0" width="26.1" height="6.9"/>
			</g>
			<g>
				<rect x="696.6" y="95" class="st0" width="26.1" height="6.9"/>
			</g>
			<g>
				<rect x="696.6" y="63.5" class="st0" width="26.1" height="6.9"/>
			</g>
			<g>
				<rect x="696.6" y="74" class="st0" width="26.1" height="6.9"/>
			</g>
			<g>
				<rect x="696.6" y="42.5" class="st0" width="26.1" height="6.9"/>
			</g>
			<g>
				<rect x="696.6" y="53" class="st0" width="26.1" height="6.9"/>
			</g>
			<g>
				<rect x="696.6" y="21.4" class="st0" width="26.1" height="6.9"/>
			</g>
			<g>
				<rect x="696.6" y="31.9" class="st0" width="26.1" height="6.9"/>
			</g>
		</g>
		<polygon class="st0" points="692.9,76.9 654.5,21.4 654.5,64.9 692.9,121.1 		"/>
	</g>
	<g>
		<g>
			<rect x="404.7" y="105.4" class="st0" width="99.6" height="6.9"/>
		</g>
		<g>
			<rect x="404.7" y="115.9" class="st0" width="99.6" height="6.9"/>
		</g>
		<g>
			<rect x="404.7" y="94.9" class="st0" width="99.6" height="6.9"/>
		</g>
		<g>
			<rect x="404.7" y="42.3" class="st0" width="99.6" height="6.9"/>
		</g>
		<g>
			<rect x="404.7" y="21.3" class="st0" width="99.6" height="6.9"/>
		</g>
		<g>
			<rect x="404.7" y="31.8" class="st0" width="99.6" height="6.9"/>
		</g>
	</g>
	<polygon class="st0" points="448.7,91.1 504.3,52.7 460.8,52.7 404.5,91.1 	"/>
</g>
</svg>
