<?xml version="1.0" encoding="UTF-8" standalone="no"?>
<!-- Generator: Adobe Illustrator 24.3.0, SVG Export Plug-In . SVG Version: 6.00 Build 0)  -->

<svg
   xmlns:dc="http://purl.org/dc/elements/1.1/"
   xmlns:cc="http://creativecommons.org/ns#"
   xmlns:rdf="http://www.w3.org/1999/02/22-rdf-syntax-ns#"
   xmlns:svg="http://www.w3.org/2000/svg"
   xmlns="http://www.w3.org/2000/svg"
   xmlns:sodipodi="http://sodipodi.sourceforge.net/DTD/sodipodi-0.dtd"
   xmlns:inkscape="http://www.inkscape.org/namespaces/inkscape"
   version="1.1"
   id="Layer_1"
   x="0px"
   y="0px"
   viewBox="0 0 413.3 62.9"
   style="enable-background:new 0 0 413.3 62.9;"
   xml:space="preserve"
   sodipodi:docname="Netizen.svg"
   inkscape:version="0.92.5 (2060ec1f9f, 2020-04-08)"><metadata
   id="metadata10821"><rdf:RDF><cc:Work
       rdf:about=""><dc:format>image/svg+xml</dc:format><dc:type
         rdf:resource="http://purl.org/dc/dcmitype/StillImage" /></cc:Work></rdf:RDF></metadata><defs
   id="defs10819" /><sodipodi:namedview
   pagecolor="#ffffff"
   bordercolor="#666666"
   borderopacity="1"
   objecttolerance="10"
   gridtolerance="10"
   guidetolerance="10"
   inkscape:pageopacity="0"
   inkscape:pageshadow="2"
   inkscape:window-width="2140"
   inkscape:window-height="1058"
   id="namedview10817"
   showgrid="false"
   inkscape:zoom="3.3873701"
   inkscape:cx="120.39362"
   inkscape:cy="-31.005718"
   inkscape:window-x="3289"
   inkscape:window-y="249"
   inkscape:window-maximized="0"
   inkscape:current-layer="Layer_1" />
<rect
   x="12.8"
   y="0.7"
   width="4.2"
   height="61.8"
   id="rect10676"
   style="fill:#282827;fill-opacity:1" />
<rect
   y="0.7"
   width="4.2"
   height="61.8"
   id="rect10678"
   style="fill:#282827;fill-opacity:1" />
<rect
   x="6.4"
   y="0.7"
   width="4.2"
   height="61.8"
   id="rect10680"
   style="fill:#282827;fill-opacity:1" />
<rect
   x="57.9"
   y="0.7"
   width="4.2"
   height="61.8"
   id="rect10682"
   style="fill:#282827;fill-opacity:1" />
<rect
   x="45.1"
   y="0.7"
   width="4.2"
   height="61.8"
   id="rect10684"
   style="fill:#282827;fill-opacity:1" />
<rect
   x="51.5"
   y="0.7"
   width="4.2"
   height="61.8"
   id="rect10686"
   style="fill:#282827;fill-opacity:1" />
<polygon
   points="42.8,34.4 19.5,0.6 19.5,27.1 42.8,61.3 "
   id="polygon10688"
   style="fill:#282827;fill-opacity:1" />
<rect
   x="191.6"
   y="2.4"
   transform="matrix(0.7072 -0.707 0.707 0.7072 52.6039 140.4832)"
   width="8.6"
   height="8.6"
   id="rect10690"
   style="fill:#282827;fill-opacity:1" />
<g
   id="g10814"
   style="fill:#282827;fill-opacity:1">
	<path
   d="M195.9,17.1c1.1,0,2,0.9,2,2c0,1.1-0.9,2-2,2c-1.1,0-2-0.9-2-2C193.9,18,194.8,17.1,195.9,17.1 M195.9,13   c-3.4,0-6.1,2.8-6.1,6.1c0,3.4,2.7,6.1,6.1,6.1c3.4,0,6.1-2.7,6.1-6.1C202,15.7,199.3,13,195.9,13"
   id="path10692"
   style="fill:#282827;fill-opacity:1" />
	<path
   d="M195.9,29.4c1.1,0,2,0.9,2,2c0,1.1-0.9,2-2,2c-1.1,0-2-0.9-2-2C193.9,30.3,194.8,29.4,195.9,29.4 M195.9,25.2   c-3.4,0-6.1,2.8-6.1,6.1c0,3.4,2.7,6.1,6.1,6.1c3.4,0,6.1-2.8,6.1-6.1C202,28,199.3,25.2,195.9,25.2"
   id="path10694"
   style="fill:#282827;fill-opacity:1" />
	<path
   d="M195.9,41.7c1.1,0,2,0.9,2,2s-0.9,2-2,2c-1.1,0-2-0.9-2-2S194.8,41.7,195.9,41.7 M195.9,37.5c-3.4,0-6.1,2.8-6.1,6.1   c0,3.4,2.7,6.1,6.1,6.1c3.4,0,6.1-2.7,6.1-6.1C202,40.3,199.3,37.5,195.9,37.5"
   id="path10696"
   style="fill:#282827;fill-opacity:1" />
	<path
   d="M195.9,54.1c1.1,0,2,0.9,2,2s-0.9,2-2,2c-1.1,0-2-0.9-2-2S194.8,54.1,195.9,54.1 M195.9,49.9c-3.4,0-6.1,2.8-6.1,6.1   c0,3.4,2.7,6.1,6.1,6.1c3.4,0,6.1-2.8,6.1-6.1C202,52.7,199.3,49.9,195.9,49.9"
   id="path10698"
   style="fill:#282827;fill-opacity:1" />
	<polygon
   points="147.3,62.9 144.3,59.9 152.8,51.5 161.2,59.9 158.2,62.9 152.8,57.4  "
   id="polygon10700"
   style="fill:#282827;fill-opacity:1" />
	<polygon
   points="147.3,54.3 144.3,51.4 152.8,42.9 161.2,51.4 158.2,54.3 152.8,48.8  "
   id="polygon10702"
   style="fill:#282827;fill-opacity:1" />
	<polygon
   points="147.3,45.7 144.3,42.8 152.8,34.3 161.2,42.8 158.2,45.7 152.8,40.3  "
   id="polygon10704"
   style="fill:#282827;fill-opacity:1" />
	<polygon
   points="147.3,37.1 144.3,34.2 152.8,25.8 161.2,34.2 158.2,37.1 152.8,31.7  "
   id="polygon10706"
   style="fill:#282827;fill-opacity:1" />
	<polygon
   points="147.3,28.6 144.3,25.6 152.8,17.2 161.2,25.6 158.2,28.6 152.8,23.1  "
   id="polygon10708"
   style="fill:#282827;fill-opacity:1" />
	<polygon
   points="147.3,20 144.3,17 152.8,8.6 161.2,17 158.2,20 152.8,14.5  "
   id="polygon10710"
   style="fill:#282827;fill-opacity:1" />
	<polygon
   points="169.2,11.4 163.7,5.9 158.2,11.4 152.8,5.9 147.3,11.4 141.8,5.9 136.3,11.4 129.4,4.4 132.3,1.5 136.3,5.5    141.8,0 147.3,5.5 152.8,0 158.2,5.5 163.7,0 169.2,5.5 173.2,1.5 176.2,4.4  "
   id="polygon10712"
   style="fill:#282827;fill-opacity:1" />
	<path
   d="M91.2,6.9c0,3.4-2.8,6.1-6.1,6.1c-3.4,0-6.1-2.8-6.1-6.1c0-3.4,2.7-6.1,6.1-6.1C88.4,0.8,91.2,3.5,91.2,6.9"
   id="path10714"
   style="fill:#282827;fill-opacity:1" />
	<path
   d="M103.5,6.9c0,3.4-2.7,6.1-6.1,6.1c-3.4,0-6.1-2.8-6.1-6.1c0-3.4,2.7-6.1,6.1-6.1C100.7,0.8,103.5,3.5,103.5,6.9"
   id="path10716"
   style="fill:#282827;fill-opacity:1" />
	<path
   d="M115.7,6.9c0,3.4-2.7,6.1-6.1,6.1c-3.4,0-6.1-2.8-6.1-6.1c0-3.4,2.7-6.1,6.1-6.1C113,0.8,115.7,3.5,115.7,6.9"
   id="path10718"
   style="fill:#282827;fill-opacity:1" />
	<path
   d="M85,17.2c1.1,0,2,0.9,2,2c0,1.1-0.9,2-2,2c-1.1,0-2-0.9-2-2C83.1,18.1,84,17.2,85,17.2 M85,13c-3.4,0-6.1,2.8-6.1,6.1   c0,3.4,2.7,6.1,6.1,6.1c3.4,0,6.1-2.8,6.1-6.1C91.2,15.8,88.4,13,85,13"
   id="path10720"
   style="fill:#282827;fill-opacity:1" />
	<path
   d="M91.2,31.5c0,3.4-2.8,6.1-6.1,6.1c-3.4,0-6.1-2.7-6.1-6.1c0-3.4,2.7-6.1,6.1-6.1C88.4,25.3,91.2,28.1,91.2,31.5"
   id="path10722"
   style="fill:#282827;fill-opacity:1" />
	<path
   d="M103.5,31.5c0,3.4-2.7,6.1-6.1,6.1c-3.4,0-6.1-2.7-6.1-6.1c0-3.4,2.7-6.1,6.1-6.1C100.7,25.3,103.5,28.1,103.5,31.5"
   id="path10724"
   style="fill:#282827;fill-opacity:1" />
	<path
   d="M115.7,31.5c0,3.4-2.7,6.1-6.1,6.1c-3.4,0-6.1-2.7-6.1-6.1c0-3.4,2.7-6.1,6.1-6.1C113,25.3,115.7,28.1,115.7,31.5"
   id="path10726"
   style="fill:#282827;fill-opacity:1" />
	<path
   d="M91.2,43.8c0,3.4-2.8,6.1-6.1,6.1c-3.4,0-6.1-2.8-6.1-6.1c0-3.4,2.7-6.1,6.1-6.1C88.4,37.6,91.2,40.4,91.2,43.8"
   id="path10728"
   style="fill:#282827;fill-opacity:1" />
	<path
   d="M91.2,56.1c0,3.4-2.8,6.1-6.1,6.1c-3.4,0-6.1-2.7-6.1-6.1c0-3.4,2.7-6.1,6.1-6.1C88.4,50,91.2,52.7,91.2,56.1"
   id="path10730"
   style="fill:#282827;fill-opacity:1" />
	<path
   d="M97.3,54.2c1.1,0,2,0.9,2,2c0,1.1-0.9,2-2,2c-1.1,0-2-0.9-2-2C95.4,55,96.2,54.2,97.3,54.2 M97.3,50   c-3.4,0-6.1,2.8-6.1,6.1c0,3.4,2.7,6.1,6.1,6.1c3.4,0,6.1-2.8,6.1-6.1C103.5,52.7,100.7,50,97.3,50"
   id="path10732"
   style="fill:#282827;fill-opacity:1" />
	<path
   d="M115.7,56.1c0,3.4-2.7,6.1-6.1,6.1c-3.4,0-6.1-2.7-6.1-6.1c0-3.4,2.7-6.1,6.1-6.1C113,50,115.7,52.7,115.7,56.1"
   id="path10734"
   style="fill:#282827;fill-opacity:1" />
	<path
   d="M309.7,6.9c0,3.4-2.7,6.1-6.1,6.1c-3.4,0-6.1-2.8-6.1-6.1c0-3.4,2.7-6.1,6.1-6.1C307,0.8,309.7,3.5,309.7,6.9"
   id="path10736"
   style="fill:#282827;fill-opacity:1" />
	<path
   d="M322,6.9c0,3.4-2.7,6.1-6.1,6.1c-3.4,0-6.1-2.8-6.1-6.1c0-3.4,2.7-6.1,6.1-6.1C319.3,0.8,322,3.5,322,6.9"
   id="path10738"
   style="fill:#282827;fill-opacity:1" />
	<path
   d="M334.3,6.9c0,3.4-2.7,6.1-6.1,6.1c-3.4,0-6.1-2.8-6.1-6.1c0-3.4,2.8-6.1,6.1-6.1C331.6,0.8,334.3,3.5,334.3,6.9"
   id="path10740"
   style="fill:#282827;fill-opacity:1" />
	<path
   d="M303.6,17.2c1.1,0,2,0.9,2,2c0,1.1-0.9,2-2,2c-1.1,0-2-0.9-2-2C301.6,18.1,302.5,17.2,303.6,17.2 M303.6,13   c-3.4,0-6.1,2.8-6.1,6.1c0,3.4,2.7,6.1,6.1,6.1c3.4,0,6.1-2.8,6.1-6.1C309.7,15.8,307,13,303.6,13"
   id="path10742"
   style="fill:#282827;fill-opacity:1" />
	<path
   d="M309.7,31.5c0,3.4-2.7,6.1-6.1,6.1c-3.4,0-6.1-2.7-6.1-6.1c0-3.4,2.7-6.1,6.1-6.1C307,25.3,309.7,28.1,309.7,31.5"
   id="path10744"
   style="fill:#282827;fill-opacity:1" />
	<path
   d="M322,31.5c0,3.4-2.7,6.1-6.1,6.1c-3.4,0-6.1-2.7-6.1-6.1c0-3.4,2.7-6.1,6.1-6.1C319.3,25.3,322,28.1,322,31.5"
   id="path10746"
   style="fill:#282827;fill-opacity:1" />
	<path
   d="M334.3,31.5c0,3.4-2.7,6.1-6.1,6.1c-3.4,0-6.1-2.7-6.1-6.1c0-3.4,2.8-6.1,6.1-6.1C331.6,25.3,334.3,28.1,334.3,31.5"
   id="path10748"
   style="fill:#282827;fill-opacity:1" />
	<path
   d="M309.7,43.8c0,3.4-2.7,6.1-6.1,6.1c-3.4,0-6.1-2.8-6.1-6.1c0-3.4,2.7-6.1,6.1-6.1C307,37.6,309.7,40.4,309.7,43.8"
   id="path10750"
   style="fill:#282827;fill-opacity:1" />
	<path
   d="M309.7,56.1c0,3.4-2.7,6.1-6.1,6.1c-3.4,0-6.1-2.7-6.1-6.1c0-3.4,2.7-6.1,6.1-6.1C307,50,309.7,52.7,309.7,56.1"
   id="path10752"
   style="fill:#282827;fill-opacity:1" />
	<path
   d="M315.9,54.2c1.1,0,2,0.9,2,2c0,1.1-0.9,2-2,2c-1.1,0-2-0.9-2-2C313.9,55,314.8,54.2,315.9,54.2 M315.9,50   c-3.4,0-6.1,2.8-6.1,6.1c0,3.4,2.7,6.1,6.1,6.1c3.4,0,6.1-2.8,6.1-6.1C322,52.7,319.3,50,315.9,50"
   id="path10754"
   style="fill:#282827;fill-opacity:1" />
	<path
   d="M334.3,56.1c0,3.4-2.7,6.1-6.1,6.1c-3.4,0-6.1-2.7-6.1-6.1c0-3.4,2.8-6.1,6.1-6.1C331.6,50,334.3,52.7,334.3,56.1"
   id="path10756"
   style="fill:#282827;fill-opacity:1" />
	<rect
   x="353.6"
   y="51.8"
   width="15.9"
   height="4.2"
   id="rect10758"
   style="fill:#282827;fill-opacity:1" />
	<rect
   x="353.6"
   y="58.2"
   width="15.9"
   height="4.2"
   id="rect10760"
   style="fill:#282827;fill-opacity:1" />
	<rect
   x="353.6"
   y="39.1"
   width="15.9"
   height="4.2"
   id="rect10762"
   style="fill:#282827;fill-opacity:1" />
	<rect
   x="353.6"
   y="45.5"
   width="15.9"
   height="4.2"
   id="rect10764"
   style="fill:#282827;fill-opacity:1" />
	<rect
   x="353.6"
   y="26.3"
   width="15.9"
   height="4.2"
   id="rect10766"
   style="fill:#282827;fill-opacity:1" />
	<rect
   x="353.6"
   y="32.7"
   width="15.9"
   height="4.2"
   id="rect10768"
   style="fill:#282827;fill-opacity:1" />
	<rect
   x="353.6"
   y="13.5"
   width="15.9"
   height="4.2"
   id="rect10770"
   style="fill:#282827;fill-opacity:1" />
	<rect
   x="353.6"
   y="19.9"
   width="15.9"
   height="4.2"
   id="rect10772"
   style="fill:#282827;fill-opacity:1" />
	<rect
   x="353.6"
   y="0.7"
   width="15.9"
   height="4.2"
   id="rect10774"
   style="fill:#282827;fill-opacity:1" />
	<rect
   x="353.6"
   y="7.1"
   width="15.9"
   height="4.2"
   id="rect10776"
   style="fill:#282827;fill-opacity:1" />
	<rect
   x="397.4"
   y="51.8"
   width="15.9"
   height="4.2"
   id="rect10778"
   style="fill:#282827;fill-opacity:1" />
	<rect
   x="397.4"
   y="58.2"
   width="15.9"
   height="4.2"
   id="rect10780"
   style="fill:#282827;fill-opacity:1" />
	<rect
   x="397.4"
   y="39.1"
   width="15.9"
   height="4.2"
   id="rect10782"
   style="fill:#282827;fill-opacity:1" />
	<rect
   x="397.4"
   y="45.5"
   width="15.9"
   height="4.2"
   id="rect10784"
   style="fill:#282827;fill-opacity:1" />
	<rect
   x="397.4"
   y="26.3"
   width="15.9"
   height="4.2"
   id="rect10786"
   style="fill:#282827;fill-opacity:1" />
	<rect
   x="397.4"
   y="32.7"
   width="15.9"
   height="4.2"
   id="rect10788"
   style="fill:#282827;fill-opacity:1" />
	<rect
   x="397.4"
   y="13.5"
   width="15.9"
   height="4.2"
   id="rect10790"
   style="fill:#282827;fill-opacity:1" />
	<rect
   x="397.4"
   y="19.9"
   width="15.9"
   height="4.2"
   id="rect10792"
   style="fill:#282827;fill-opacity:1" />
	<rect
   x="397.4"
   y="0.7"
   width="15.9"
   height="4.2"
   id="rect10794"
   style="fill:#282827;fill-opacity:1" />
	<rect
   x="397.4"
   y="7.1"
   width="15.9"
   height="4.2"
   id="rect10796"
   style="fill:#282827;fill-opacity:1" />
	<polygon
   points="395.1,34.4 371.8,0.6 371.8,27.1 395.1,61.3  "
   id="polygon10798"
   style="fill:#282827;fill-opacity:1" />
	<rect
   x="219.9"
   y="51.8"
   width="60.6"
   height="4.2"
   id="rect10800"
   style="fill:#282827;fill-opacity:1" />
	<rect
   x="219.9"
   y="58.2"
   width="60.6"
   height="4.2"
   id="rect10802"
   style="fill:#282827;fill-opacity:1" />
	<rect
   x="219.9"
   y="45.4"
   width="60.6"
   height="4.2"
   id="rect10804"
   style="fill:#282827;fill-opacity:1" />
	<rect
   x="219.9"
   y="13.4"
   width="60.6"
   height="4.2"
   id="rect10806"
   style="fill:#282827;fill-opacity:1" />
	<rect
   x="219.9"
   y="0.6"
   width="60.6"
   height="4.2"
   id="rect10808"
   style="fill:#282827;fill-opacity:1" />
	<rect
   x="219.9"
   y="7"
   width="60.6"
   height="4.2"
   id="rect10810"
   style="fill:#282827;fill-opacity:1" />
	<polygon
   points="246.6,43.1 280.4,19.7 254,19.7 219.7,43.1  "
   id="polygon10812"
   style="fill:#282827;fill-opacity:1" />
</g>
</svg>