<?xml version="1.0" encoding="utf-8"?>
<!-- Generator: Adobe Illustrator 24.3.0, SVG Export Plug-In . SVG Version: 6.00 Build 0)  -->
<svg version="1.1" id="Layer_1" xmlns="http://www.w3.org/2000/svg" xmlns:xlink="http://www.w3.org/1999/xlink" x="0px" y="0px"
	 viewBox="0 0 1124.8 143.7" style="enable-background:new 0 0 1124.8 143.7;" xml:space="preserve">
<style type="text/css">
	.st0{fill:#FFFFFF;}
	.st1{enable-background:new    ;}
</style>
<g>
	<path class="st0" d="M78.8,39.6c0.3-0.4,0-0.6-0.2-0.2c-0.2,0.3-0.9,0-1.2-0.3c-0.4-0.4-0.6-1.3-0.3-1.6c0.3-0.3,0.8-0.2,1.3-0.2
		c0.4,0,0.5-0.4,0.5-0.6c-0.2-0.1-0.5-0.2-0.8-0.5c-0.4,0.2-0.9,0.7-1.2,0.9c-0.3,0.3-0.9,1.2-0.6,2.1c0.4,1,1.2,1.3,1.8,1.4
		C78.3,40.4,78.6,39.8,78.8,39.6 M76,45.7v-2.1l-0.7-1H75l-1,1c-0.3,0.2,0,0.4,0.3,0.1l0.7,0.4v2.2c0.1,0.3,0.3,0.3,0.6,0.7l0.4-0.4
		l0.4-0.5C76,46,76.2,46,76,45.7 M73.1,45.7c-0.4,0.4-0.6,0.2-0.9,0c-0.1-0.2-0.2-1.6-0.1-1.6c0,0,0.7-0.1,0.8-0.1
		c0.1,0,0.1-0.4,0-0.4c-0.2,0-0.8,0-0.8-0.1c-0.1-0.2,0.1-1.1,0.2-1.6c0-0.3-0.1-0.4-0.2-0.1C72,42,71.4,43.2,71,43.5
		c-0.3,0.2,0.4,0.6,0.3,0.6c0,1-0.1,2.1,0.2,2.6c0.2,0.3,0.9,0.6,1,0.2c0.1-0.3,0.6-0.9,0.7-1C73.5,45.6,73.3,45.5,73.1,45.7
		 M74.8,41c-0.2,0.3-0.4,0.6-0.9,0.8c0.3,0.2,0.6,0.6,0.9,0.7c0.3-0.3,0.5-0.6,0.8-0.9C75.3,41.5,74.9,41.4,74.8,41 M72.7,39.3
		c-0.3-0.3-0.4-0.6-0.5-0.9c-0.1-0.4-0.4-0.3-0.4,0s0.1,1.5,0.1,1.8c0.1,0.3,0.3,0.2,0.4,0c0-0.2,0.2-0.3,0.3-0.3
		c0.4,0,1,0.2,1.8,0.1c0.8-0.1,1.5-1.4,1.1-2.4c-0.3-1-1.4-0.8-2.1-1s-0.9-0.6-0.2-1.1c0.9-0.6,1.9,0.3,2,0.5
		c0.2,0.3,0.3,0.3,0.3-0.1c0-0.8,0-0.3-0.1-1.1c0-0.3-0.2-0.3-0.2,0S74.9,35,74.6,35c-0.2,0-1-0.1-1.6,0.2c-0.4,0.2-1.3,0.9-0.8,1.8
		c0.3,0.5,2,0.9,2.4,1.2s0.5,1,0.1,1.3C74.4,39.9,73,39.6,72.7,39.3 M63,45.6c-0.5-0.6-0.7-1.5,0.7-2.4c0.2,0.4,0.6,1.1,0.8,1.2
		C64.1,44.8,63.2,45.4,63,45.6 M64.5,42.3c-0.5,0.3-2.1,1-2.4,2.7c-0.2,1.6,1.3,2.6,2,2.9c0.2-0.4,0.6-1,0.9-1.4
		c0.3-0.3,0-0.4-0.3-0.2c-0.3,0.4-1.3,0-1.6-0.5c0.5-0.4,1.8-1.4,2.3-1.9C65.1,43.6,64.5,42.8,64.5,42.3 M69.9,46.5
		c-0.3,0.1-0.3,0.1-0.3-0.1c0-0.3-0.1-1.6-0.1-2.5s-0.4-1.1-0.7-1.2c-0.2,0.3-0.8,0.6-1.1,0.9c-0.2-0.2-0.4-0.6-0.6-1
		c-0.3,0.3-0.6,0.6-1,0.9c0.2,0.2,0.6,0.6,0.6,1s0,2.4,0,2.9c0.3,0,0.3,0,0.9,0c-0.1-0.3,0-2.9,0-3.3c0.2-0.2,0.3-0.2,0.5-0.4
		c0.2,0.2,0.6,0.2,0.6,0.5s0.1,1.5,0,2s-0.1,0.9,0.2,1.5c0.2-0.3,1.1-0.8,1.3-1C70.2,46.6,70.1,46.5,69.9,46.5 M70.9,39.6
		c-0.2,0.1-0.5-0.2-0.6-0.2c-0.1-0.1-0.3-2.1-0.2-2.2c0,0,1.3-0.2,1.4-0.2s0.1-0.4,0-0.4c-0.2,0-1.2,0.1-1.2,0
		c0-0.2-0.2-0.9,0.1-1.5c0.1-0.3,0-0.5-0.1-0.2s-0.9,1.5-1.4,1.7c-0.4,0.2-0.4,0.3-0.1,0.3c0.2,0,0.4,0.3,0.4,0.3
		c0,1-0.1,2.3,0.2,2.8c0.2,0.3,0.8,0.7,1,0.5c0.3-0.2,0.5-0.6,0.6-0.7C71.3,39.6,71.1,39.5,70.9,39.6 M63,34.7
		c0.7,0.4,1.7,0.1,2.5-0.1c0.3-0.1,0.4,0.1,0.6,0.4c0.3,0.4,0.5,0.1,0.3-0.2c-0.1-0.1-0.2-0.3-0.2-0.5c0-0.1,0-1.5,0-1.7
		s-0.3-0.1-0.3,0c0,0.2,0,0.7-0.2,1c-0.6,0.9-1.8,1.3-2.6,0.2c-0.3-0.4-0.3-1-0.4-1.4c-0.1-0.6,0.4-1.3,0.4-1.3
		c1-1.4,2.5-0.4,2.6,0.2c0.1,0.4,0.2,0.8,0.2,1.1c0,0.2,0.3,0.1,0.3,0c0-0.2,0-2.3,0-2.4s-0.3-0.2-0.3,0c0,0.3-0.2,0.4-0.5,0.3
		c-0.5-0.2-1.7-0.4-2.4,0c-0.6,0.4-1.5,1.2-1.5,2.2C61.6,34.1,62.2,34.3,63,34.7 M68,31.1c0,0.4,0,2.5,0,2.9c0.3,0.1,0.6,0,1,0
		c0-0.3,0-3,0-3.3c0.1-0.1,0.3-0.2,0.4-0.2c0.2,0.1,0.5,0.6,0.7,0.7c0.2-0.1,0.7-0.5,0.9-0.7c0.2-0.2,0-0.4-0.2-0.2
		c-0.2-0.2-0.5-0.6-0.7-0.8c-0.2,0.2-0.7,0.5-1,0.6c-0.2-0.3-0.5-0.3-0.9-0.6c-0.2,0.2-0.8,0.6-1.1,0.9C67.6,30.7,68,30.7,68,31.1
		 M66.2,36.9c0.1,0,0.7,0.6,0.6,0.9c0,0.1,0,0.4,0,0.7c-0.6,0.4-0.8,0.4-1.3-0.1c-0.2-0.3-0.2-0.7-0.1-0.9
		C65.7,37.2,66,36.9,66.2,36.9 M66.9,39.7c0,0.1,0,0.2,0,0.3c-0.1,0-0.3,0.1-0.4,0.1c-0.2-0.2-1.3-0.6-0.6-1.1
		c0.4,0.3,0.6,0.1,1-0.2C66.9,39.2,66.9,39.5,66.9,39.7 M65.2,37.5c-0.1,0.2,0,1.1,0.1,1.2c0.1,0.1,0.1,0.1,0.2,0.2
		c-0.4,0.3-0.7,0.6-0.7,1.2c0,0.5,0.4,0.9,0.9,1.2c0.3-0.4,0.7-0.7,1.2-0.8c0,0.4,0.1,0.7,0.4,0.9c0.2-0.2,0.9-0.9,1.1-1
		s0-0.3-0.1-0.1c-0.1,0.1-0.4-0.1-0.5-0.2c0-0.2,0-2.5,0.1-2.6c-0.3-0.4-0.7-1.1-1-1.1C66.2,36.2,65.4,36.9,65.2,37.5 M63.6,40.9
		c0.2-0.4,0.3-0.5,0.6-1c-0.7,0.1-1.2,0-1.7-0.4c-1-0.8-0.7-2.1-0.4-2.5c0.5-0.8,1.3,0.4,1.5,0.5c0.2-0.2,0.5-0.5,0.8-0.8
		c-0.3-0.4-0.5-0.8-0.8-1c-0.6,0.2-1.6,0.8-2,1.4c-0.6,0.9-0.9,2.3,0.1,3.1C62.3,40.7,62.7,41.1,63.6,40.9 M73,29.6
		c0.1,0.4,0.5,0.6,0.7,0.8c-0.4,0.4-1,1-1.2,1.2C72.2,30.5,72.3,30.1,73,29.6 M73.8,33.9c0.4,0,0.9-0.5,1.1-0.6
		c0.5-0.3,0.3-0.5-0.3-0.4c-1.3,0.3-1.9-0.7-2.1-1c0.5-0.5,1.4-1.4,2-1.9c-0.4-0.3-0.5-0.9-1.2-0.9c-0.6,0-1.9,0.7-2.1,2.3
		C71.1,32.9,72.6,33.8,73.8,33.9 M81,37.6l-0.5-0.7h-0.2l-1,1c-0.3,0.3,0,0.4,0.3,0.1l0.5,0.3v2.3c0.1,0.3,0.3,0.4,0.6,0.7l0.6-0.5
		l0.5-0.5c-0.5-0.1-0.5-0.1-0.8-0.3V37.6z M77.1,30.2c0.3,0,0.9,0.4,1.3,0.7c-0.1,0.1-0.3,0.2-0.6,0.4c-0.1,0-0.3,0-0.4,0
		c-0.5-0.1-0.7-0.4-0.9-0.7C76.3,30.4,76.8,30.2,77.1,30.2 M78.1,33.7c-0.5,0.2-1.5-0.4-1.6-0.7c0.2-0.2,0.6-0.5,1-0.8
		c0.3,0.1,0.6,0.3,0.9,0.5C78.8,32.9,78.6,33.4,78.1,33.7 M76.5,32.4c-0.4,0.3-0.9,0.8-1.3,1.2c0.2,0.2,1.2,0.7,1.8,0.7
		c0.9,0,1.7-0.5,2.1-0.9c0.9-0.7,0.6-1.5-0.3-2c-0.1,0-0.2-0.1-0.3-0.1c0.6-0.4,1.1-0.8,1.2-1c-0.4-0.3-0.8-0.9-1.6-0.9
		c-0.9,0-1.9,0.8-2.2,1.3C75.4,31.3,75.9,31.9,76.5,32.4 M81.3,32.2c0.2,0,0.3-0.4-0.7-0.5C80.3,31.7,80,32.2,81.3,32.2 M79.3,45
		c-0.4,0-0.8-0.1-1.3-0.5c-0.1-0.1-0.2-0.6-0.1-0.8c0.2-0.3,0.2-0.4,0.4-0.4c0.1,0,1,0.5,0.9,0.8C79.3,44.3,79.3,44.7,79.3,45
		 M78.5,46.5c-0.2-0.2-1.1-0.8-0.3-1.4c0.4,0.3,0.6,0.2,1.1,0.2c0,0.3,0,0.5,0,0.6s0.1,0.2,0.1,0.3C79,46.3,78.7,46.4,78.5,46.5
		 M81.2,46.4c-0.1,0.2-0.5,0.1-0.6-0.1c0-0.2-0.2-2.5-0.1-2.6c-0.3-0.4-0.9-1.2-1.3-1.2c-0.6,0.1-1.4,0.9-1.6,1.1
		c-0.1,0.2,0,1.1,0.1,1.2c0,0,0,0,0.1,0.1c-0.4,0.4-0.7,0.8-0.7,1.4c0,0.5,0.2,1,0.7,1.2c0.5-0.3,1.1-0.7,1.6-0.9
		c0.3,0.3,0.7,0.6,1,0.8c0.2-0.2,0.8-0.7,0.9-0.8C81.5,46.4,81.4,46.2,81.2,46.4 M81.2,32.9c0.2,0,0.5-0.4-0.7-0.5
		C80.3,32.4,80,32.8,81.2,32.9 M80,36.4h0.3l0.4-0.4v-0.6l-0.5-0.6l-0.5,0.5V36L80,36.4z M84.7,57c0.4,0.1,1.2,0.6,1.5,0.8l-1.5,0.8
		c0,0,0.4-0.5,0.4-0.8C85.1,57.3,84.7,57,84.7,57 M83.7,57.1c-0.7,0.9,0.1,1.6,0.1,1.6c-0.3,0-0.8-0.2-1-0.3
		c-0.1,0.3,0.4,0.4,0.6,0.6c1.6,0.7,2.6-0.9,4-1.1v-0.1c-0.9-0.1-1.7-0.8-2.5-1.1c-1.2-0.4-2.4,0.5-2.4,0.6
		C82.4,57.5,82.8,57.7,83.7,57.1 M87.9,40.8c0.8,0.4,2,0.3,3,0.1c0.4-0.1,0.6-0.1,0.5,0.2c0,0.2,0.3,0.2,0.3,0c0-0.1,0-1.6,0-1.8
		s-0.3-0.2-0.3,0s0,0.3-0.2,0.7c-0.7,1-2.3,0.9-3.2-0.3c-0.3-0.4-0.6-0.9-0.2-1c0.3-0.1,1.4,0.1,2.1,0.2c0.4,0,1.4,0.1,1.5,0.2
		c0.1,0.1,0.3,0.2,0.3,0s0-0.9,0-1.1c0-0.2-0.2-0.1-0.3,0c-0.1,0.1-1.1,0.3-1.6,0.3c-0.4,0.1-1.7,0.2-2,0.1
		c-0.3-0.1-0.2-0.8,0.1-1.2c0.9-1.2,2.7-1.1,3.3-0.1c0.2,0.3,0.2,0.4,0.2,0.7c0,0.2,0.3,0.2,0.3,0s0-1.9,0-2.1c0-0.1-0.3-0.2-0.3,0
		c0,0.1-0.3,0.2-0.6,0.1c-0.6-0.2-2.2,0.1-2.9,0.5c-0.6,0.4-1.6,1.2-1.6,2.3C86.4,40.2,87.1,40.4,87.9,40.8 M106.6,39.5
		c0.2,0,0.5,0.1,0.8,0.1c0.2,0,0.2-0.3,0-0.4c-0.2-0.1-0.5-0.1-0.8-0.1C106.5,39.1,106.3,39.4,106.6,39.5 M106.6,40.3
		c0.2,0.1,0.5,0.1,0.8,0.1c0.2,0,0.1-0.3,0-0.4c-0.2-0.1-0.5-0.1-0.7-0.1C106.4,39.9,106.3,40.2,106.6,40.3 M104.6,44.8
		c-0.2-0.2-0.5-0.6-1-0.9c-0.3,0.2-1,0.9-1.4,1.1c0.5,0,1.2,0.2,1.2,0.6c0,0.4,0,2.6,0,3c0.3,0.1,0.6,0,1.1,0c0-0.3,0-2.9,0-3.2
		c0.1-0.1,0.3-0.2,0.4-0.2c0.2,0.1,0.7,0.7,0.9,0.8c0.2-0.2,0.7-0.6,0.9-0.8c0.2-0.2,0-0.4-0.2-0.2c-0.2-0.2-0.6-0.6-1-0.8
		C105.4,44.3,104.9,44.7,104.6,44.8 M99.6,37.6c0.3,0.3,0.5,0.6,0.9,0.6s0.8-0.2,0.9-0.3c-0.3-0.3-1.1-1.1-1.2-1.2
		c-0.4,0.2-2,1.1-2.2,2c-0.2,1.5,0.3,1.8,0.9,2.5c0.4,0.5,1,0.5,1.2,0.4c0.3-0.2,1.4-1.2,1.5-1.4c0.1-0.1,0-0.2-0.2-0.1
		c-0.1,0.1-0.1,0.2-0.3,0.2c-0.2,0-0.9,0.2-1.3-0.1c-0.5-0.3-1.2-0.9-1.1-1.7C99,38,99.4,37.8,99.6,37.6 M90.4,44.8
		c-0.1-0.1-0.1-0.8,0-1c0.2-0.3,0.4-0.4,0.5-0.4c0.2,0,0.8,0.4,0.7,0.7c0,0.2,0,0.6,0,1C91.2,45.2,90.9,45.2,90.4,44.8 M91.7,46.2
		c-0.2,0.2-0.5,0.3-0.8,0.5c-0.3-0.2-0.6-0.4-0.2-1.3c0.3,0.2,0.5,0.1,1,0C91.7,45.7,91.7,46,91.7,46.2 M93.4,45.9
		c-0.2,0.2-0.4,0.1-0.8-0.3c0-0.2,0-2.1,0.1-2.2c-0.4-0.4-0.7-0.9-1.1-0.9c-0.6,0.1-1.4,1.1-1.6,1.4c-0.2,0.2,0,1,0.1,1
		c0,0,0.1,0,0.1,0.1c-0.3,0.3-0.8,1-0.8,1.5s0.3,1,0.6,1.3c0.5-0.4,0.8-0.9,1.7-1.2c0.1,0.4,0.4,0.5,0.7,0.7
		C92.6,47.1,93.3,46.2,93.4,45.9C93.7,45.9,93.6,45.8,93.4,45.9 M104.5,41.5c-0.3-0.1-1.2-0.8-1.4-1.4c-0.3-0.7-0.3-1.6,0.5-2
		c0.6,0.2,1.3,0.8,1.4,1.4C105.1,40.2,104.9,41.1,104.5,41.5 M104.4,37.2c-1.4,0.5-2.2,1.6-2.3,2.9c0,0.8,0.6,2.3,1.9,2.3
		c0.4-0.4,0.8-0.8,1.3-1.1c0.3-0.5,0.7-1.3,0.6-1.9C105.9,38.6,105.5,37.5,104.4,37.2 M88.6,46.5c-0.3,0.2-0.7,0-0.7-0.3
		c0-0.4,0-4.1,0-4.6c-0.3,0-1,0-1.2,0c0,0.5,0.2,4.8,0.1,5.4c0,0.3,0.4,0.7,0.8,1c0.2-0.2,0.6-0.9,1-1.2
		C88.9,46.6,88.8,46.5,88.6,46.5 M101.5,46.7c-0.1-0.4,0-1.8,0-2.4c-0.2-0.4-0.6-0.8-1-1.1c-0.3,0.2-0.6,0.6-1.1,1
		c0.3,0,1,0.1,1,0.4c0,0.4,0.1,1.1,0,1.7c-0.1,0.6-1.7,0.3-1.7-0.1c0-0.4,0.1-1.6,0.1-2.2c-0.2-0.4-0.4-0.5-0.8-0.9
		c-0.2,0.2-0.7,0.5-1.1,1c0.3,0,0.6,0.1,0.8,0.4c0.2,0.3,0,1.6,0,2.1s0.3,0.6,0.7,1c0.4-0.1,1.5-0.5,1.8-0.8c0,0.4,0.5,0.9,0.8,1
		c0.2-0.2,0.4-0.3,0.7-0.6C101.6,47.1,101.6,47.1,101.5,46.7 M96.4,46.3c-0.2,0.2-0.7,0-0.8-0.1c-0.1-0.2-0.1-2.5,0-2.5
		c0,0,0.6,0,0.8,0c0.1,0,0.1-0.4,0-0.4c-0.2,0-0.8-0.1-0.8-0.1c-0.1-0.2,0-0.9,0.2-1.2c0.1-0.3-0.1-0.4-0.2-0.1
		c-0.1,0.3-0.8,1-1.5,1.3c-0.4,0.2,0.5,0.6,0.5,0.5c0,1-0.2,2.7,0.1,3.3c0.2,0.3,0.7,0.5,1.1,0.4c0.3-0.1,0.7-0.8,0.9-0.9
		C96.8,46.3,96.6,46.2,96.4,46.3 M97.5,36.9c-0.7-0.2-1.2-0.7-1.4-1c-0.2,0.1-0.8,0.8-1.1,1c-0.1-0.3-0.6-0.7-1-0.8
		c-0.1,0.2-1.2,0.9-1.6,1.2c-0.1,0.1-0.1,0.4,0.1,0.3c0.2-0.1,0.5-0.3,0.9-0.5c0.4,0.2,0.9,0.6,0.9,1.5c0,1-0.5,2-1,2.5
		c1-0.3,1.1-0.8,1.6-1.5c0.3,0.4,0.8,1,1.2,1.2c0.3-0.2,1.1-1.1,1.2-1.2c-0.6-0.2-1.7-0.7-1.9-1.3c-0.2-0.4-0.2-0.7,0-1
		C95.6,37.3,97,37.9,97.5,36.9 M93.6,30.7l0.9,0.5v2.4c0.1,0.3,0.3,0.6,0.7,0.9h0.7l0.8-1c-0.6-0.1-0.8-0.2-1.2-0.6v-2.5l-0.8-0.8
		h-0.3l-1.2,1.1C93.1,31,93.4,31,93.6,30.7 M94.9,29.1h0.4l0.4-0.4v-0.6l-0.6-0.6L94.5,28v0.7L94.9,29.1z M97.8,31.1
		c0,1,0.1,2.6,0.4,3.2c0.1,0.4,0.6,1,0.9,0.8c0.2-0.1,0.6-0.9,0.7-1c0.2-0.2,0-0.5-0.2-0.3s-0.4-0.1-0.4-0.3
		C99.1,33.3,98.9,31,99,31c0,0,1.9-0.2,2-0.2s0.1-0.4,0-0.4c-0.2,0-1.8,0-1.8-0.1c-0.1-0.3-0.1-0.7,0.1-1.3c0.1-0.3-0.1-0.4-0.2-0.1
		s-0.9,1.4-1.7,1.7C96.9,30.7,97.9,31.1,97.8,31.1 M87.2,29c0.4,0,0.8-0.1,1.1,0.5c0.5,0.7,1.9,3.8,2.3,5.1c0.2-0.3,1.6-4.5,1.7-4.9
		s0.4-0.9,0.8-1s0.4-0.3,0.1-0.3s-1.4,0.1-1.8,0.1c-0.4,0.1-0.4,0.3-0.1,0.3s0.4,0.1,0.6,0.5s-0.6,2.4-0.8,2.9
		C90.9,31.9,90,30,90,29.8c0-0.2,0.4-0.4,0.5-0.4c0.3-0.1,0.3-0.3,0.1-0.3c-0.7-0.1-2.9-0.3-3.4-0.3C87,28.6,86.9,29,87.2,29
		 M102,32.4c-0.1-0.1-0.1-0.1,0-0.3c0.2-0.3,0.5-0.6,0.7-0.6s1.1,0.5,1.1,0.8c0,0.2,0,0.6,0,1C103.4,33.1,102.4,32.7,102,32.4
		 M103.1,35c-0.3-0.2-1-1.1-0.5-2c-0.1,0-0.1-0.1-0.2-0.1c0.5,0.3,1,0.5,1.5,0.6c0,0.4,0,0.7,0,0.8c0,0.2,0,0.3,0,0.4
		C103.6,34.8,103.4,34.9,103.1,35 M101.5,34.3c0,0.5,0.5,1.3,0.8,1.6c0.4-0.3,0.9-0.7,1.6-0.9c0.1,0.4,0.3,0.6,0.5,0.8l1-1.1
		c0,0-0.4-0.4-0.7-0.7c0-0.2,0-2.4,0.1-2.5c-0.7-0.7-1.3-0.8-1.6-0.7c-0.6,0.1-1.2,0.9-1.4,1.1c-0.1,0.2-0.1,0.5,0,0.6
		c0.1,0.1,0.3,0.2,0.4,0.3h-0.1C101.9,33,101.5,33.8,101.5,34.3 M116.8,72.8c-1.9-1.9-4-6.9-4.9-6.1c-0.1,0,3.6,5.8,5.4,9.2
		c0.9,1.7,1.7,4.2,1.7,6c0.3,9.1-1.1,8.4-1.1,8.4c-2.1-7.2-3.1-15.6-6.3-19.4c-1.2-1.5,3.3,6.8,3.5,14.2c-0.9,0.2-3.2,1.2-3.8,2.1
		c0.3-5-1.3-10-1.8-11.2c-1-2.3,0.4,5.4,0.5,7.2c0,0.1-8.4-10.7-3.3-2.4c1.3,2.2,3.3,3.6,3.4,3.6c0,1.5-0.1,2.6-0.4,3.4
		c-0.5,0.4-11.4-14.5-5.4-4.2c0.7,1.3,5.1,5.1,5.1,5.2c-0.3,0.6-0.8,1.4-1.4,2.1c-0.1-0.1-2.5-1.9-2.5-2c-0.2-1.1-0.2-2.2-1.6-1.4
		c0,0-5.4-6.2-2.9-1.9c1.1,1.9,1.8,2.1,2.1,2.5c0,0-0.8,1.1-1.1,2.3c-0.1,0.5-4.6-5-2.9-1.6c0.6,1.1,2.6,2.3,2.6,2.4
		c-0.2,0.7-0.4,1.4-0.7,1.9c-0.3,0.6-4.3,3.8-4.3,3.7c0,0,0.8-2.5,2.5-3.7c1-0.7,1-0.5,1.6-1c0-0.4-0.4-1-0.8-1.1
		c-0.6-0.2-2.5,0.1-2.5,0.1c0.2-0.9-0.7-3-0.6-5.2c-0.7,0.1-2,1.2-2.3,1.8c-0.2,3.7-1,2.6-1.8,5.3c-0.8-1.1,0.1-2.7-0.7-3.8
		c-1.1-1.4-1.3-2.4-1.4-4.2c0.3-0.1,1.4-1.4,0.4-4c-0.2-4.1,1.7-5.7-1.6-8.5c0.3-0.1,0.5-2.1,0.5-2.2c2.4,1.3,1.9-1.5,2.9-2
		c1.5-0.9,1.2-1.8,0.5-2.9c4.3,1.2-0.2,4.1,1.7,4.2c1.4,0,2.3-0.3,3-1.3c0.6-1-0.1-1.6,1.7-3.2c0.2-0.2,0.7-1.2-0.8-1.5
		c-0.3-0.1,0-1.3,0-1.3c-1.2,1-1.5,2.3-3.4,1.5c-0.9-0.4-1.6,0-2,0.2c0,0-0.2-0.8,0.6-1c2-0.7,2.5-1.5,2.4-1.9
		c-0.3-1.1-0.4,0-0.3-1.1c0-0.4,0.5-1,1-1.6c1.4-1.7,2.3-1,2.7-0.9c0.8-0.6,0.9-0.6,1.7-0.9c1.3-0.5,4,0.3,5.6,1
		c0.7,0.3,1.6,0.5,2.5,0.3c0,0.5-0.3,0.7-0.6,0.8c-0.5,0.2-1.1,0-1,0.4c0,0.2,0.7,0.2,1.1,0.4c2.3,0.6,5.2,2.7,3.3,2.2
		c-0.2,0,1.4,1.2,2.6,2.9l4.4,4.2c-0.2,0.2-1.7,0-6.6-4.5c-0.7,0.6,5.9,5.6,8.6,10.8C121.4,75.3,118,74,116.8,72.8 M105.1,92.1
		c0.2-0.8,0.2-1.3,0.3-2c0-0.3,0-0.3,0.1-0.5c0-0.1,2.1,1.7,2.2,1.8c-0.5,0.7-1,0.9-1.5,1.4C105.8,92.5,105.1,92.2,105.1,92.1
		 M105.7,93.3c-1,0.8-1.6,1.1-1.4,0.7c0.2-0.5,0.4-0.9,0.5-1.2C104.9,92.6,105.7,93.3,105.7,93.3 M114.5,91.9
		c-1.2,0.4-1.7,1.7-2.7,2.5c-2.9,2.9-7.2,1.8-10.7,3.4c-3.1,1.1-5.4,4-8.6,4.7c-1,0.3-1.1,0.8-0.5,0.8c0.4,0,2.3,2.1,5.5,0.5
		c1.1-0.5,4.4-2.4,4.9-2.5c-1.8,1.7-2.7,3.2-4.3,4.1c-1,0.5-4.9,2-8.9,1.2c-1.8-0.3-3.1,1.3-2.7,1.2c0.9-0.3,2-0.1,2.6,0.7
		c1.2,0.9,2.8,2,4.3,0.3c0.5-0.6,2.8-1.7,4.9,0.4c-2.3-0.1-2.1,4-6.4,3.5c-1.6,0-5.1-3.7-6.1-2.5c-1.8,2,3.8,3.9,1.4,6.4
		c-2.2,2.3-4.8-1.8-4.8-1.8c1.4,0.6,3.9,0.9,2.8-1.3c-0.4-0.9-1.3-1.7-1.3-3.3c-0.2-0.8-5.2,6.5-8.5,3.2c-1.3-1.3-4-4.1-6.3-5.2
		c6.3-0.5,7.3,2,7.6,2.4c2,2.7,3.9,0,4.3-0.5c0.7-0.8,1.6-1.8,1.3-1.9c-2.5-1.2-5.3-1.4-7.4-0.4c4.5-6.2,8-0.4,8-0.4
		c0.5,0.3-0.1-3.7-4.6-3.9c-2.8-0.1-5.2,2.4-7.1,2.4c-1.6,0-6.3-3.2-7.4-6c2.7,2.1,6.3,3.2,8.4,1.9c4.1-2.4,9.3,1.2,9.5,0.8
		c-1.2-0.9-3.8-4.4-10.8-2.4c-2.7,1.6-3.9-1.2-5.6-1.2c2.9-2.5,4.8-1.2,5.8-1.2c0.2,0-1.2-1.2-2.2-1.3c-7.8-0.8-12.7-3-12.7-3
		s0.7-1.6,4-0.4c0,0-3-1.8-3-4.2c0.1-1.5,0.8-3-0.3-4.2c4.5-0.2,1.3,6.1,4.5,7.7c0.1,0-0.9-1.5,0.5-2.7c0.7,1.9,2.3,2.8,3.4,3.1
		c0.3-0.1,0.6-0.7,0.6-0.7c-1.2-2-1.4-4.3-1-6.9l0,0c0.3,0,0.7,0.9,1,1.6c0.7,1.4,0.6,3.5,2,5.1c0.7,0.9,1.2,1.8,1.8,2.3
		c0.3-0.7,0.1-1.8,0-2.1c-0.2-1.1-0.8-2.9,1-4.6c0.9,2.5,2,1.8,2.2,2.9c0.2,1.7,0.1,1.4,0,2.7c0.1,1.8,1.7,2.2,3.1,3.4
		c3.2,1.7,5.3,2.7,6.7,4.9c0.7-3.8-9.5-4.5-8.2-11.8c-0.1-2.9,0.4-3.1-1.7-4.9c4.1,0.1,6.3,6.8,6.5,8c0.4,2.2,1.8,2.4,3.6,5.3
		c0.3,0.1-3.3-7.8,1-14.5c0,0,1.4,3.5,0.8,5.8c-0.4,1.4,0,2.9,0,3.8c0.1,0.9-0.2-3.2,2.9-5.3c0.2,1.5,1.7,3.9,0.3,6.5
		c-1.7,3.1-1.8,2-1.9,5.8c0.2-0.1,0.6-2.6,1.8-4.1c2.5-3.1,0.7-4.8,3.1-7.4c0.2,1.3,0.5,0.8,0.7,2c0.3,2.7-2.5,5.6-1.9,5.5
		c0.7-0.1,1.9-0.7,2.2-2.8c0,0,1,1.9,0.1,2.5c-1.7,1.1-2.1,2.3-1.8,3.7c1.4-1.6,3.2-3.4,2.9-5.8c0.2-1.4,1.7-2,2-5.2
		c0-0.5,0.6-1.2,1.1-1.5c-0.2,1.8,1.2,3.7-0.4,6c0.4,0.2,1.7-1.8,3.7-1c-4,0.7-2.8,5.1-5.9,7.1c-0.9,0.6-0.8,1.3-1.1,1.4
		c2.8-0.2,4.9-3.4,5.2-3.7c2.8-1.9,3.4-2.2,4.5-5.2c0.4-1.1,0.1-1.7,1.7-3.2c0.7,1.5-0.3,4.7-0.5,5.4c-0.5,1.5-2.2,2.7-1.9,2.7
		c7.4-3.3,7.3-5.5,9.1-7.8c0.5-0.9,3.2-2.4,4.2-2.6c-0.2,0.5-1.3,1.3-1.3,2.2c-0.1,1.6-0.6,2.6-1.5,4
		C112.7,92.8,113.6,91.1,114.5,91.9 M110.6,100c-0.9,1.3-1.3-1.2-0.5-3.7c1.1-0.4,2.2-1.3,3-2.3C112.7,96.2,111.9,98.2,110.6,100
		 M58.1,99.4c-1-1.8-1.4-3.4-1.9-5.1c0.7,0.5,1.6,0.7,2.4,1.1C59.6,97.9,58.6,100.4,58.1,99.4 M55.8,92.6c-1-4.3-0.9-6.4-0.7-10.8
		c0.1-2,0.8-5,0.5-5.1c-0.3,0-4.8,11.6-5.9,13.9C47.8,90,50.9,79.9,54.8,75c0.4-1.5-2.1,1.6-3.5,2.8c-1.3,1.1-3,2.6-4.9,2.1
		c2.4-2.5,7.8-7.2,8.4-8.3c0.5-1-3.7,3.1-8.1,1.6c2.9-1.5,9.6-5,9.6-7.3l-0.1-0.1c-0.1,0-5.1,3.2-8.4,1.7c2.5-1.4,11-6.8,13.3-8.3
		c1.1,0.2,1.5-0.2,1.9-0.4c-0.9,0.1-3.8,0.5-2.3-2.1c0.6,2.4,4.7,0.2,6.2-0.2c4.1-1,4.1,3.5,3.8,5.3c-0.1,0.7,1.3,1.2,2,1.1
		c-1.2,2.9-3.2,0.2-3.4,1.3c-0.1,0.5-1.4,0.8-1.4,1.9c0,1.5,0.6,0.7,0.7,1.9c0.1,1.2-0.5,0.3-0.4,1.5c0.2,2,3.5-0.3,4.8,0.3
		c0.7,0.3,1.1,0.9,1.8,0.8c0.2-0.2,0.1-0.9,0.1-1.2c-0.1-0.6-1.2-0.7-1.8-1.6c-0.5-0.7,0.5-3,1.1-3.7c0.8,3.7,4.3,2.5,4.8,6.5
		c0.3,1.1-1.2,2.3,0,4.1c-0.9,0.9-2,5.1-0.1,7.1c-0.3,0.9-0.8,3,1,4.2c-0.6,1.2-0.4,2.7,0,4.2c-1.1,0-0.9-6-7.2-6.2
		c-0.1,0-0.2,0.7,0,1c0.8,1.3,1.8,1.3,1.6,4.4c-0.1,1.1-0.7-0.2-1-0.5c-0.8-0.7-1.4-0.8-1.7-3c-2.6,2-2.3,4.5-2.2,5.7
		c0,0-0.6-1.6-1.2-3.2c0-0.1,2.6-3.3,3.1-4.1c5.4-9.7-3.5,3.1-3.5,3.1c-0.5-1.1-0.9-2.1-1.2-2.4c0.1-0.1,1.5-1.8,2.2-3.2
		c4.2-8.7-2.5,2.9-2.7,2.7c-0.5-0.5-0.9-1-1.2-0.8c-0.1,1.3-0.4,1.1-0.3,2.5c-0.7,0.9-2.2,2.4-3.2,3.1c0,0-0.3-2.4-0.2-2.5
		c0.5-0.6,2.6-2.8,3-3.5C71,72.6,61,85.9,61,85.8c-0.1-0.4-0.6-1.1-1.2-1.7c0,0,2.2-3,2.8-4.1c4.1-8.5-3.3,3.8-3.4,3.7
		c-0.2-0.1-0.2-0.1-0.4-0.2s0.2-2.5,0.5-3.9c0.6-2.9-0.9-0.6-1.4,3.9c-0.4,0.1-1.3,0.2-1.7,0.5c0.2,1.2,0.5,0.3,1,1.4
		c0.6,1.4-0.8,3.7,0.4,5.3c0.5,0.6,0.5,0.5,0.4,1C56.8,92,56.3,91.9,55.8,92.6 M51.6,42.1c3.5,0,3.5,5.3,0,5.3
		C48,47.4,48,42.1,51.6,42.1 M51.6,31.5c3.5,0,3.5,5.3,0,5.3S48.2,31.5,51.6,31.5 M55.3,43.5h3.1v3h-3.1V43.5z M55.3,32.9h3.1v3
		h-3.1V32.9z M59.5,27.1c0,0,6.5,0.9,9.1-0.2c9-3.5,14.6,0.4,14.6,0.4v24.4c0,0-3.2-1.7-7-2c-3.7-0.2-11.1,2.7-16.7,2.3
		C59.5,52,59.5,27.1,59.5,27.1z M74.9,61.6c-0.6-1.1,0.8-2.2,0.8-2.2c0,3.1,3.9,1,6,2c0.5,0.2,0.8,0.7,1.1,1.1
		C80.5,61,76.4,64.1,74.9,61.6 M83.5,54.9c2.2-0.3,3.9,2.1,6,0.9c0.2,0.9-0.7,1.2-0.7,1.2c1.4,0.3,2-0.5,2.3-1
		c0.5,2.2-1.7,2.3-2.3,2.4c0,0,1.1,0.3,1.2,1c0.1,1.8,1.3,1.7,1.6,1.5c0,0.2-0.4,1.3-1.7,0.3c-0.2,0.2,0.4,0.6,0.5,1.5
		c0.2,1.2,0.1,2.2,1.4,2.9c-0.8,0.7-1.8-1-1.9-0.8s1.1,0.8-0.2,4c-0.6-0.3-0.3-0.3-1-1.1c-0.5-0.5-0.8-0.6-0.3,0.2
		c0.8,1,1,3.3,0.7,3.9c-0.7-0.3-0.5-0.8-1.3-1.5c-0.1,0.3,0.2,1.8,1,2.5c1.4,1.2,1.9,2.8,1.9,3.1c0.1,1.1-0.2,2.6-0.4,4.1
		c-0.7-0.1-1.2-2-1.4-1.9c-0.2,0.1,0.1,1.8,1.3,3c0.6,1.8,0.4,2.7,0.2,2.8c-0.2,0.1-0.9-1.8-1.3-1.5c1.8,4.5,0.5,6.1,0.1,7.5
		c-0.4-1.4-0.6-2.5-1-4.1c-1,0.8-1.2,1.9-2.4,2.9c0-1.8-1.1-6.3-1.9-7.3c0,0-1.5,4-2.2,5.8c-0.9,2.3-1,5.2,0,7.5
		c-2.2-3.1-2.4-8.9-0.5-9.7c0.2-0.4-0.1-1.8-0.5-1.6c-0.1,0.7,0,1.2-0.6,1.9c-1.5-0.4-0.8-2.2-0.7-2.8c1.9-2.3,0.7-2.8,0.6-2.7
		c-0.2,0.5-0.4,1.1-1,1.4c-1.2-2.1-0.4-5.3,1.9-7.8c0.1-0.9-1,0.7-1.8,0.6c-0.2-1.8,0.5-4.8,3.7-4.9c-0.6-0.2-1-0.3-1.1-0.8
		c1-0.1,4.1-0.4,3.6-2.8c-0.3,0.3-0.4,0.7-1.2,1.2C83.5,67,83,67,82.6,66.5c1.4-0.5,1-2.2-0.9-1.7c-0.6,0.2-1.4-0.4-1.4-1.1
		c0.4,0.4,1.3,0.1,1.7-0.2c2.1-1.4,3.4,0.6,3.7,1c0.1,0,0.9-2-2-2.5c-0.3-0.7-0.9-1.9-3-1.8C80,57.9,78,59,78.1,60.1
		c-2.1-1.6,0-3.6,0.9-3.9c0.6,0,0.5,2,1.5,1.6c0.3-0.1-0.8-1.3-0.4-1.9c1-0.5,0.9,0.7,1.4,0.2C81.8,55.4,82.7,55,83.5,54.9
		 M84.4,27.4c0,0,6.8-3.2,11.8-1.4c6.1,2.2,13.1,1.2,13.1,1.2V52c-4.8,0.3-14.6-2.4-17.1-2.4c-5.2,0-7.7,2-7.7,2
		S84.4,28.3,84.4,27.4 M110.1,42.2c0,0,0.6,1,5.4,0.3c2.6-0.4,3,2.7,3,2.7l0,0c-0.6-0.5-1.9-0.7-2.8-0.2c-2.9,1.9-5.6,1.9-5.6,1.9
		V42.2z M110.2,32.5c3,1.3,4.2,0.1,5.2,0.1c3,0,3.1,2.8,3.1,2.8c0,0.3,0.1,0.5,0.1,0.7c0-0.1,0-0.4-0.1-0.7
		c-0.1-0.5-1.4-0.7-2.4-0.3c-1.3,0.6-4.7,2.5-5.9,2.1C110.2,37.2,110.2,32.5,110.2,32.5z M124.4,22.2c-46.3-4.5-81.3,0-81.3,0v57.7
		c3.7,39.1,40.3,43.7,40.7,43.6c6.5-1.2,37.2-7.4,40.6-43.6V22.2z"/>
	<path class="st0" d="M524.5,119.6c-16.3,0-22.3-15.9-22.3-28.2c0-18.1,11.2-24,19.8-24c15.8,0,21.9,14.7,21.9,28.4
		C543.9,112.1,534.4,119.6,524.5,119.6 M523.4,122.1c16,0,28.7-12.2,28.7-28.9c0-14.6-9.6-28.4-28.7-28.4
		c-17.1,0-29.5,12.7-29.5,29.2C493.9,109,505,122.1,523.4,122.1 M477.5,107.7c0-4.2,0.1-6.5,3.6-7l1.3-0.2c0.6-0.5,0.5-1.7-0.1-2.1
		c-2.7,0.2-5.6,0.2-8.8,0.2c-4.9,0-9.4-0.1-11.8-0.2c-0.6,0.2-0.7,1.7,0,2.1l3.6,0.4c5.1,0.6,5.4,1.1,5.4,8v3.3
		c0,2.6-0.4,4.1-0.8,4.7c-0.9,1.4-4,2.5-9.1,2.5c-16.6,0-24.8-12.5-24.8-28.4c0-12.4,7-23.8,23.1-23.8c8.4,0,14.7,2.8,17,11.8
		c0.5,0.5,2,0.4,2.2-0.2c-0.7-5-1.2-9.3-1.2-12c-1,0.2-3.6-0.4-5.1-0.7c-1.4-0.3-5.8-1.2-10.5-1.2c-12.5,0-20.7,3.9-26.2,9.7
		c-5.1,5.5-7.5,12.6-7.5,19.6c0,7.3,2.6,13.8,7.6,18.8c6.4,6.5,15.4,9.2,25.2,9.2c4.5,0,10.4-1,14.8-2.2c1.6-0.4,3.1-0.7,4.1-0.7
		c0.3-0.2,0.3-0.7,0.1-1c-1.5-0.6-2-2.6-2-5.9v-4.7H477.5z M392.5,79.8c0.9-2.5,1.7-4.5,2-4.9h0.2c0.5,1,1.2,3.2,1.9,5.2l4.5,13.5
		c0.7,2.2,0.6,2.6-1.8,2.6H389c-2.3,0-2.4-0.1-1.7-2L392.5,79.8z M407.3,112.9c0.7,2,1.1,3.5,1.1,4.4c0,0.8-1.2,1.3-2.9,1.5
		l-2.4,0.2c-0.6,0.4-0.5,1.7,0.2,2.1c2.4-0.1,5.5-0.3,9.5-0.3c3.7,0,6.6,0.1,10,0.3c0.4-0.3,0.6-1.7,0-2.1l-2.2-0.2
		c-3.6-0.4-4.6-1.7-7-8.8l-11.3-33.3c-1.2-3.6-2.6-7.4-3.6-11.1c-0.2-0.6-0.8-0.7-1.2-0.7c-0.9,1.1-2.3,2.6-4.3,3.1
		c0.2,1.3-0.3,2.9-1.4,5.9l-8.4,22.3c-3.5,9.3-5.8,14.7-7.3,18.5c-1.2,3-3,3.9-5,4.1l-2.7,0.2c-0.5,0.4-0.3,1.7,0.2,2.1
		c2.2-0.1,5.2-0.3,7.9-0.3c3.9,0.1,6.5,0.1,8.6,0.3c0.7-0.3,0.7-1.7,0.2-2.1l-2.7-0.2c-2-0.2-2.4-0.7-2.4-1.7c0-0.9,0.6-3.1,1.8-6.9
		l2.9-8.7c0.6-1.7,1.1-2,3.1-2h12.5c2.5,0,2.8,0.2,3.4,2.1L407.3,112.9z M309.1,93.8c0,10.7,5.1,18.2,11.8,22.8
		c6,4.1,13.2,5.5,20.6,5.5c5.3,0,11.3-1.2,13.1-1.9c0.9-0.3,1.9-0.7,2.9-0.8c1.2-1.6,3.4-7,4-11.3c-0.3-0.6-1.6-0.7-2.2-0.3
		c-1.9,4.9-6.6,11.8-17.3,11.8c-13.6,0-24.6-9.6-24.6-27c0-17.1,10.8-25.2,23.4-25.2c12,0,15.7,6.5,17,12.1c0.6,0.5,1.8,0.4,2.2-0.2
		c-0.7-5.1-1.1-10.3-1.2-12.2c-0.7,0.1-1.3-0.1-2.3-0.3c-3.9-1.1-10.2-2-14.7-2c-8.6,0-16.3,2.3-22.4,7
		C313.2,76.8,309.1,84.6,309.1,93.8 M284.8,108.2c0,8.8-0.2,9.9-5,10.5l-2.1,0.2c-0.5,0.5-0.3,1.8,0.2,2.1c4.1-0.2,7-0.3,10.4-0.3
		c3.3,0,6.1,0.1,10.3,0.3c0.5-0.3,0.7-1.7,0.2-2.1l-2.1-0.2c-4.9-0.6-5-1.7-5-10.5V78.7c0-8.8,0.2-10.2,5-10.6l2.1-0.2
		c0.5-0.3,0.3-1.8-0.2-2.1c-4.1,0.2-7,0.2-10.3,0.2c-3.5,0-6.3-0.1-10.4-0.2c-0.5,0.2-0.7,1.7-0.2,2.1l2.1,0.2c4.9,0.4,5,1.8,5,10.6
		V108.2z M246.6,94.1c4,0,4.1,0.2,4.1,2.6v11.7c0,8.7,0,9.5-5.1,10.4L244,119c-0.5,0.5-0.3,1.8,0.2,2.1c3.6-0.2,6.6-0.3,10-0.3
		c3.2,0,6,0.1,10,0.3c0.5-0.3,0.7-1.7,0.2-2.1l-2-0.2c-4.8-0.6-5-1.7-5-10.4V78.6c0-8.7,0.2-9.9,5-10.4l1.7-0.2
		c0.5-0.3,0.3-1.8-0.2-2.1c-3.7,0.2-6.5,0.2-9.8,0.2c-3.4,0-6.2-0.1-10-0.2c-0.5,0.2-0.7,1.7-0.2,2.1l1.6,0.2
		c4.9,0.5,5.1,1.7,5.1,10.4v9.5c0,2.6-0.2,2.6-4.1,2.6h-23.7c-4,0-4.1-0.1-4.1-2.6v-9.5c0-8.7,0.2-9.9,5-10.4l1.6-0.2
		c0.5-0.3,0.3-1.8-0.2-2.1c-3.6,0.2-6.4,0.2-9.6,0.2c-3.6,0-6.4-0.2-10.4-0.2c-0.5,0.2-0.7,1.7-0.2,2.1l2.2,0.2
		c4.3,0.3,4.9,1.7,4.9,10.4v29.8c0,8.7-0.2,9.5-4.8,10.4l-1.4,0.2c-0.5,0.5-0.3,1.8,0.2,2.1c3.2-0.1,6-0.3,9.6-0.3
		c3.2,0,6,0.1,10.5,0.3c0.5-0.3,0.7-1.7,0.2-2.1l-2.4-0.2c-4.6-0.5-5-1.7-5-10.4V96.7c0-2.5,0.2-2.6,4.1-2.6H246.6z M141.3,93.8
		c0,10.7,5.1,18.2,11.8,22.8c6,4.1,13.2,5.5,20.6,5.5c5.3,0,11.3-1.2,13.1-1.9c0.9-0.3,1.9-0.7,2.9-0.8c1.2-1.6,3.4-7,4-11.3
		c-0.3-0.6-1.6-0.7-2.2-0.3c-1.9,4.9-6.6,11.8-17.3,11.8c-13.6,0-24.6-9.6-24.6-27c0-17.1,10.8-25.2,23.4-25.2
		c12,0,15.7,6.5,17,12.1c0.6,0.5,1.8,0.4,2.2-0.2c-0.7-5.1-1.1-10.3-1.2-12.2c-0.7,0.1-1.3-0.1-2.3-0.3c-3.9-1.1-10.2-2-14.7-2
		c-8.6,0-16.3,2.3-22.3,7C145.4,76.8,141.3,84.6,141.3,93.8"/>
	<path class="st0" d="M311.8,44.7l-1-0.1c-1.8-0.2-1.9-0.4-1.9-4.1V28.2c0-3.7,0.1-4,1.9-4.1l0.9-0.1h0.1c0.2-0.1,0.3-0.4,0.2-0.7
		c0-0.1-0.1-0.5-0.3-0.7h-0.1h-0.1c-1.6,0.1-2.8,0.1-4.3,0.1s-2.7,0-4.3-0.1h-0.1h-0.1c-0.3,0.1-0.3,0.5-0.3,0.7
		c0,0.3,0.1,0.5,0.2,0.7h0.1l0.9,0.1c1.7,0.1,1.9,0.4,1.9,4.1v12.3c0,3.7-0.1,3.9-1.9,4.1l-1,0.1l-0.1,0.1c-0.2,0.2-0.2,0.5-0.2,0.8
		s0.2,0.4,0.3,0.5h0.1h0.1c1.8-0.1,2.9-0.1,4.3-0.1s2.6,0,4.3,0.1h0.1h0.1c0.3-0.1,0.3-0.5,0.3-0.7C312,45.1,311.9,44.8,311.8,44.7"
		/>
	<path class="st0" d="M295.7,22.6L295.7,22.6h-0.2c-1.1,0.1-2,0.1-3.5,0.1c-1.2,0-2.4,0-4.1-0.1h-0.1h-0.1c-0.2,0.1-0.3,0.3-0.4,0.5
		c-0.1,0.3,0,0.6,0.2,0.8l0.1,0.1l0.7,0.1c1.2,0.1,1.8,0.3,1.9,0.6c0.4,0.7,0.6,3.2,0.6,7v7.4c0,0.3,0,0.7,0,1
		c-1.2-1.2-2.4-2.6-4-4.4l-4.8-5.4c-3.4-3.8-5.4-6.3-5.8-7.5l-0.1-0.2h-0.2c-0.4,0.1-1,0.1-1.5,0.1c-0.6,0-2.4,0-3.9-0.1h-0.1h-0.1
		c-0.2,0.1-0.3,0.3-0.4,0.5c0,0.3,0,0.6,0.2,0.8l0.1,0.1l0.7,0.1c0.9,0.1,1.6,0.4,2,0.7c0.6,0.7,0.7,1.3,0.7,2.3v10.3
		c0,1.7,0,5.6-0.4,6.7c-0.1,0.2-0.4,0.4-1.3,0.5l-1,0.1l-0.1,0.1c-0.2,0.1-0.2,0.4-0.2,0.7s0.1,0.5,0.3,0.6l0.1,0.1h0.1
		c1.2-0.1,2.1-0.1,3.6-0.1c1.2,0,2.3,0,4,0.1h0.1l0.1-0.1c0.2-0.1,0.3-0.3,0.3-0.5c0-0.3,0-0.5-0.2-0.7l-0.1-0.1l-1.2-0.1
		c-0.8-0.1-1.4-0.3-1.6-0.5c-0.4-0.7-0.6-3.2-0.6-7v-7.5c0-0.6,0-1.3,0.1-1.7c0.5,0.6,1.5,1.7,2.3,2.7c0.6,0.7,1.1,1.3,1.4,1.7
		l8,9.1c2.7,3,3.9,4.5,4.4,5.2l0.1,0.1h0.1c0.5,0,0.8-0.2,0.9-0.6v-0.1V46c0-0.4-0.1-1.8-0.1-6v-8.7c0-1.8,0-5.4,0.5-6.5
		c0-0.1,0.5-0.4,1.7-0.6l0.6-0.1l0.1-0.1c0.2-0.2,0.2-0.4,0.2-0.7C296.1,22.9,295.9,22.7,295.7,22.6"/>
	<path class="st0" d="M264.8,22.6L264.8,22.6h-0.2c-1.2,0.1-2.1,0.1-3.6,0.1c-1.3,0-2.6,0-3.9-0.1H257h-0.1
		c-0.2,0.1-0.3,0.3-0.3,0.5c0,0.3,0,0.5,0.2,0.7l0.1,0.1l1,0.1c0.8,0.1,1.3,0.3,1.5,0.6c0.4,0.7,0.6,3.2,0.6,7v4
		c0,4.1-1.2,8.9-6.6,8.9c-4.6,0-6.7-2.8-6.7-8.9V28c0-3.7,0.1-3.9,1.8-4.1l0.9-0.1h0.1c0.2-0.1,0.3-0.3,0.2-0.6
		c0-0.2-0.1-0.5-0.3-0.7h-0.1h-0.1c-1.6,0.1-2.8,0.1-4.2,0.1s-2.6,0-4.3-0.1h-0.1h-0.1c-0.2,0.1-0.3,0.4-0.3,0.6
		c0,0.3,0.1,0.5,0.2,0.6h0.1l0.9,0.1c1.7,0.2,1.8,0.4,1.8,4.1V36c0,4.2,0.9,6.7,2.8,8.3c1.5,1.3,3.8,2,6.6,2c2.7,0,5.3-1,6.8-2.6
		c1.7-1.8,2.5-4.5,2.5-8.4v-3.9c0-1.7,0-5.8,0.5-6.9c0.2-0.4,0.8-0.6,1.5-0.7l0.9-0.1l0.1-0.1c0.2-0.2,0.2-0.5,0.2-0.7
		C265.1,22.9,265,22.7,264.8,22.6"/>
	<path class="st0" d="M164.1,21.6c-0.1,0-0.2,0-0.3,0.1h-0.1v0.1c-0.4,0.8-0.6,0.8-2.5,0.8h-14.3c-1.5,0-2.2-0.1-2.4-0.9v-0.1
		l-0.1-0.1c-0.1-0.1-0.3-0.1-0.5-0.1c-0.1,0-0.4,0-0.5,0.1l-0.1,0.1v0.1c-0.2,1.4-0.8,3.6-1.3,5.1v0.1V27c0.2,0.4,0.9,0.6,1.3,0.3
		h0.1v-0.1c0.3-0.8,0.7-1.5,1.5-2.3c0.8-0.7,2.5-0.8,4.1-0.8h1.9c0.8,0,0.8,0,0.8,0.8v15.4c0,3.7-0.2,3.9-1.9,4l-1.2,0.1h-0.1
		c-0.2,0.1-0.3,0.4-0.3,0.7c0,0.2,0.1,0.5,0.3,0.6h0.1h0.1c2.1-0.1,3.4-0.1,4.8-0.1c1.3,0,2.5,0,4.5,0.1h0.1h0.1
		c0.2-0.1,0.3-0.4,0.3-0.7s-0.1-0.5-0.2-0.6l-1.2-0.1c-1.7-0.1-1.8-0.4-1.8-4V25c0-0.4,0-0.7,0.1-0.7c0.1-0.1,0.4-0.1,0.7-0.1h2.4
		c1.8,0,3.1,0.3,3.8,0.8c0.3,0.2,0.6,1.1,0.8,2.3v0.1v0.1c0.1,0.2,0.4,0.2,0.6,0.2c0.3,0,0.6-0.1,0.7-0.4v-0.1v-0.1
		c-0.1-1,0.1-3.8,0.5-5.2v-0.1v-0.1C164.6,21.7,164.2,21.6,164.1,21.6"/>
	<path class="st0" d="M195.9,44.7l-0.9-0.1c-1.7-0.2-1.8-0.4-1.8-4V28.1c0-3.7,0.1-3.9,1.8-4.1l0.7-0.1h0.1c0.2-0.1,0.3-0.4,0.2-0.7
		c0-0.1-0.1-0.5-0.3-0.7h-0.1h-0.1c-1.7,0.1-2.8,0.1-4.1,0.1c-1.5,0-2.7,0-4.2-0.1h-0.1H187c-0.3,0.1-0.3,0.5-0.3,0.7
		c0,0.3,0.1,0.5,0.2,0.7l0.8,0.1c1.8,0.2,1.9,0.4,1.9,4.1v4c0,0.8,0,0.8-1.5,0.8h-9.9c-1.5,0-1.5,0-1.5-0.8v-4
		c0-3.7,0.1-3.9,1.8-4.1l0.7-0.1h0.1c0.2-0.1,0.3-0.4,0.2-0.7c0-0.1-0.1-0.5-0.3-0.7h-0.1H179c-1.6,0.1-2.7,0.1-4,0.1
		c-0.9,0-1.7,0-2.5-0.1c-0.6,0-1.1,0-1.8,0h0.3h-0.1c-0.3,0.1-0.3,0.5-0.3,0.7c0,0.3,0.1,0.5,0.2,0.7h0.1l1,0.1
		c1.5,0.1,1.8,0.4,1.8,4.1v12.4c0,3.6-0.1,3.7-1.8,4l-0.7,0.1l-0.1,0.1c-0.2,0.2-0.2,0.5-0.2,0.8s0.2,0.4,0.3,0.5h0.1h0.1
		c0.5,0,0.9,0,1.4,0c0.8,0,1.7-0.1,2.6-0.1c1.3,0,2.4,0,4.4,0.1h0.1h0.1c0.2-0.1,0.3-0.4,0.3-0.7s-0.1-0.5-0.2-0.6l-1.1-0.1
		c-1.7-0.2-1.9-0.3-1.9-4v-4.9c0-0.8,0-0.8,1.5-0.8h9.9c1.5,0,1.5,0,1.5,0.8v4.9c0,3.7,0,3.7-1.9,4l-0.7,0.1l-0.1,0.1
		c-0.2,0.2-0.2,0.5-0.2,0.8s0.2,0.4,0.3,0.5h0.1h0.1c1.6-0.1,2.9-0.1,4.2-0.1c1.4,0,2.6,0,4.2,0.1h0.1h0.1c0.3-0.1,0.3-0.5,0.3-0.7
		C196.2,45.1,196.1,44.8,195.9,44.7"/>
	<path class="st0" d="M364.9,40.4c-0.2,0-0.3,0-0.4,0.1l-0.1,0.1c-1,2-1.9,3-2.3,3.2c-0.7,0.4-1.8,0.5-4.3,0.5c-2.9,0-3.6-0.3-4-0.7
		c-0.5-0.5-0.6-1.6-0.6-3.4v-4.9c0-0.7,0-0.7,0.9-0.7h2c1.2,0,2.1,0,2.6,0.2c0.5,0.1,0.7,0.4,0.9,1.1l0.3,1.3v0.1
		c0.1,0.2,0.4,0.2,0.7,0.2c0.3,0,0.6-0.1,0.7-0.3v-0.1V37c0-0.3,0-0.8-0.1-1.3c0-0.6-0.1-1.3-0.1-2s0-1.5,0.1-2.1
		c0-0.5,0.1-1,0.1-1.4v-0.1V30c-0.1-0.2-0.4-0.3-0.7-0.3c-0.3,0-0.5,0.1-0.7,0.2l-0.3,1.5c-0.2,0.8-0.4,0.9-0.7,1
		c-0.4,0.1-1.4,0.2-2.8,0.2h-2c-0.9,0-0.9,0-0.9-0.7V25c0-1.1,0-1.1,0.8-1.1h2.5c1.5,0,2.6,0,3.3,0.2c1.6,0.4,1.9,1.4,2.4,2.9
		l0.1,0.2v0.1c0.1,0.1,0.3,0.2,0.6,0.2c0.2,0,0.6-0.1,0.7-0.3l0.1-0.1v-0.5c-0.2-2-0.3-3.7-0.5-4.2l-0.1-0.2l-0.2,0.1
		c-0.4,0.1-2.5,0.1-4.6,0.1h-6.5c-1.3,0-2.5,0-4.1-0.1h-0.1h-0.1c-0.3,0.1-0.3,0.5-0.3,0.7c0,0.3,0.1,0.5,0.2,0.7l0.7,0.1
		c1.8,0.2,1.9,0.4,1.9,4.1v12.4c0,3.7-0.2,3.9-1.9,4l-1.2,0.1l-0.1,0.1c-0.2,0.2-0.2,0.5-0.2,0.8s0.2,0.4,0.3,0.5l0,0h0.1
		c2-0.1,3.2-0.1,4.7-0.1h3.1c3,0,6,0,9.2,0.1h0.2l0.1-0.2c0.5-1,1.3-3.6,1.6-4.9v-0.1v-0.1C365.5,40.5,365.2,40.4,364.9,40.4"/>
	<path class="st0" d="M221.1,40.4c-0.2,0-0.3,0-0.4,0.1l-0.1,0.1c-1,2-1.9,3-2.3,3.2c-0.7,0.4-1.8,0.5-4.3,0.5c-2.9,0-3.6-0.3-4-0.7
		c-0.5-0.5-0.6-1.6-0.6-3.4v-4.9c0-0.7,0-0.7,0.9-0.7h2c1.2,0,2.1,0,2.6,0.2c0.5,0.1,0.7,0.4,0.9,1.1l0.3,1.3l0.1,0.1
		c0.1,0.2,0.4,0.2,0.6,0.2c0.3,0,0.6-0.1,0.7-0.3v-0.1V37c0-0.3,0-0.8-0.1-1.3c0-0.6-0.1-1.3-0.1-2s0-1.5,0.1-2.1
		c0-0.5,0.1-1,0.1-1.4v-0.1V30c-0.1-0.2-0.4-0.3-0.7-0.3s-0.5,0.1-0.6,0.2l-0.3,1.5c-0.2,0.8-0.3,0.9-0.7,1s-1.4,0.2-2.8,0.2h-2
		c-0.9,0-0.9,0-0.9-0.7V25c0-1.1,0-1.1,0.8-1.1h2.5c1.5,0,2.6,0,3.3,0.2c1.6,0.4,1.9,1.4,2.4,2.9l0.1,0.2v0.1
		c0.1,0.1,0.3,0.2,0.6,0.2c0.2,0,0.6-0.1,0.7-0.3v-0.1v-0.5c-0.2-2-0.3-3.7-0.5-4.2l-0.1-0.2l-0.2,0.1c-0.4,0.1-2.5,0.1-4.6,0.1H208
		c-1.3,0-2.5,0-4.1-0.1h-0.1h-0.1c-0.3,0.1-0.3,0.5-0.3,0.7c0,0.3,0.1,0.5,0.2,0.7l0.7,0.1c1.8,0.2,1.9,0.4,1.9,4.1v12.4
		c0,3.7-0.2,3.9-1.9,4l-1.2,0.1l-0.1,0.1c-0.2,0.2-0.2,0.5-0.2,0.8s0.2,0.4,0.3,0.5h0.1h0.1c2-0.1,3.2-0.1,4.7-0.1h3.1
		c3,0,6,0,9.2,0.1h0.2l0.1-0.2c0.5-1,1.3-3.6,1.6-4.9v-0.1v-0.1C221.8,40.5,221.4,40.4,221.1,40.4"/>
	<path class="st0" d="M341.9,22.6L341.9,22.6h-0.1c-1.2,0.1-2.2,0.1-3.3,0.1c-1.4,0-2.7,0-3.6-0.1h-0.1h-0.1
		c-0.2,0.1-0.3,0.3-0.3,0.6c0,0.3,0.1,0.5,0.2,0.7l0.1,0.1l0.7,0.1c1.2,0.1,1.3,0.4,1.3,0.4c0,0.2,0,0.6-0.3,1.3
		c-0.6,1.5-2.2,5.5-3.2,7.7c-0.3,0.6-0.6,1.3-0.9,2.2c-0.7,1.5-1.4,3.4-2.1,4.9c-1.6-3.7-3.1-7.5-4.7-11.4c-1-2.5-1.6-4.3-1.7-4.7
		c0-0.1,0.3-0.3,1.4-0.4l0.6-0.1l0.1-0.1c0.2-0.1,0.3-0.4,0.2-0.7c0-0.3-0.1-0.5-0.3-0.6h-0.1h-0.1c-1.5,0.1-2.7,0.1-4.2,0.1
		c-1.4,0-2.5,0-3.6-0.1h-0.1h-0.1c-0.2,0.1-0.3,0.4-0.3,0.6c0,0.3,0.1,0.5,0.2,0.7l0.1,0.1l0.7,0.1c1.3,0.2,1.8,0.8,2.6,2.7l6.1,15
		c0.7,1.8,1.3,3.3,1.6,4.6v0.1h0.1c0.2,0.1,0.4,0.1,0.6,0.1s0.4,0,0.5-0.1h0.1v-0.1c0.6-1.9,2.2-5.9,3.6-9l1.9-4.2
		c1.6-3.6,2.9-6.4,3.9-7.9c0.4-0.7,0.9-1,1.6-1.1l1.1-0.1l0.1-0.1c0.2-0.2,0.2-0.5,0.2-0.7C342.2,22.9,342.1,22.7,341.9,22.6"/>
	<path class="st0" d="M514.3,44.9c-7.1,0-9-7.2-9-11.5c0-7.2,4.3-9.7,8-9.7c6.5,0,8.8,6.2,8.8,11.6
		C522.1,42.4,517.9,44.9,514.3,44.9 M513.9,22.1c-7.2,0-12.5,5.4-12.5,12.4c0,5.9,4.3,12,12.5,12c7,0,12.2-5.3,12.2-12.3
		C526.1,28.4,522.3,22.1,513.9,22.1"/>
	<path class="st0" d="M549.3,27.3c-0.1-1.2-0.1-2.9-0.1-4.5v-0.3l-0.3,0.1c-0.4,0.1-2.5,0.1-4.6,0.1h-6.4c-1.3,0-2.5,0-4-0.1h-0.1
		h-0.1c-0.3,0.1-0.3,0.5-0.3,0.7c0,0.3,0.1,0.5,0.2,0.7l0.7,0.1c1.7,0.2,1.8,0.4,1.8,4.1v12.4c0,3.6-0.1,3.8-1.8,4l-1,0.1l-0.1,0.1
		c-0.2,0.2-0.2,0.5-0.2,0.7c0,0.3,0.2,0.5,0.3,0.5h0.1h0.1c1.6-0.1,2.8-0.1,4.3-0.1c1.4,0,2.6,0,4.6,0.1h0.1h0.1
		c0.2-0.1,0.3-0.4,0.3-0.7s-0.1-0.5-0.2-0.7l-1.3-0.1c-1.8-0.1-1.9-0.4-1.9-4v-4.8c0-0.7,0-0.7,0.9-0.7h2.3c1.2,0,2.1,0,2.6,0.2
		s0.7,0.5,0.9,1.1l0.4,1.4l0.1,0.1c0.3,0.3,1.1,0.3,1.3-0.1v-0.1v-0.1c0-0.4,0-0.8-0.1-1.3c0-0.6-0.1-1.3-0.1-2s0-1.4,0.1-2.1
		c0-0.5,0.1-1,0.1-1.4v-0.1v-0.1c-0.2-0.2-0.5-0.3-0.7-0.3c-0.3,0-0.5,0.1-0.7,0.3l-0.4,1.5c-0.2,0.8-0.4,0.9-0.7,1
		c-0.4,0.1-1.4,0.2-2.9,0.2h-2.3c-0.9,0-0.9,0-0.9-0.7v-7.3c0-1.1,0-1.1,0.8-1.1h2.1c1.4,0,2.6,0,3.3,0.2c1.5,0.4,1.9,1.4,2.2,3.1
		v0.1l0.1,0.1c0.1,0.1,0.3,0.2,0.5,0.2c0.3,0,0.6-0.1,0.7-0.4L549.3,27.3L549.3,27.3z"/>
	<path class="st0" d="M483.8,22.6L483.8,22.6h-0.2c-2.5,0.1-3.9,0.1-6.5,0H477h-0.1c-0.2,0.1-0.3,0.3-0.4,0.5c0,0.3,0,0.6,0.2,0.7
		l0.1,0.1l0.7,0.1c0.7,0.1,1.1,0.2,1.2,0.3c-0.1,0.5-1.3,2.7-2,4.1l-0.2,0.3c-0.8,1.6-1.8,3.3-3,5.4c-0.9-1.6-1.8-3.4-2.7-5.2
		c-0.3-0.7-0.7-1.4-1-2c-0.2-0.5-1-2.3-1-2.5c0-0.1,0.2-0.2,1.2-0.4l0.5-0.1l0.1-0.1c0.2-0.2,0.3-0.5,0.2-0.8
		c-0.1-0.2-0.2-0.4-0.4-0.5l0,0l0,0c-0.8,0.1-2.1,0.1-3.7,0.1s-2.9,0-4-0.1h-0.1h-0.1c-0.2,0.1-0.3,0.3-0.3,0.5c0,0.3,0,0.6,0.2,0.8
		l0.1,0.1l1.1,0.2c0.9,0.1,1.4,0.2,2.5,2.5l4.1,7.9c1,1.9,1.1,2.3,1.1,4.2v1.8c0,3.7-0.1,3.9-1.8,4.1l-1.2,0.1l-0.1,0.1
		c-0.2,0.2-0.2,0.5-0.2,0.8s0.2,0.4,0.3,0.5h0.1h0.1c1.9-0.1,3.1-0.1,4.5-0.1s2.6,0,4.7,0.1h0.1h0.1c0.2-0.1,0.3-0.3,0.3-0.5
		s0-0.6-0.2-0.7l-0.1-0.1l-1.4-0.1c-1.6-0.1-1.8-0.4-1.8-4.1v-1.8c0-2.6,0.1-2.8,1.6-5.5l2.2-3.8c0.2-0.3,0.4-0.7,0.6-1
		c1.4-2.4,2.3-4.1,3.8-4.3l1-0.2h0.1c0.2-0.2,0.3-0.4,0.2-0.7C484.1,22.9,484,22.7,483.8,22.6"/>
	<path class="st0" d="M408.2,33l-2.8-1.7c-1-0.7-2.8-2-2.8-4c0-1.3,0.5-3.6,3.8-3.6c3,0,4,2,4.4,3.7l0.1,0.1
		c0.1,0.1,0.3,0.2,0.5,0.2c0.3,0,0.6-0.1,0.8-0.3v-0.1v-0.1c0-1.4-0.3-3.4-0.6-4.3l-0.1-0.2h-0.2c-0.2,0-0.7-0.1-1.1-0.2
		c-0.8-0.2-2.1-0.5-3.3-0.5c-4.4,0-7.3,2.5-7.3,6.2c0,3.2,2.4,5.2,3.8,6.2l3.3,2.1c2.4,1.5,2.7,3.1,2.7,4.6c0,1.8-1.3,3.7-4,3.7
		c-3.5,0-5-2.7-5.7-4.9v-0.1c-0.1-0.2-0.3-0.2-0.5-0.2s-0.6,0.1-0.7,0.3V40v0.1c0.1,1.6,0.5,4.1,1,4.9v0.1h0.1
		c0.7,0.4,2.6,1.3,5.5,1.3c4.6,0,7.6-2.7,7.6-6.6C412.6,37.1,411.2,34.8,408.2,33"/>
	<path class="st0" d="M377.9,25c0-0.8,0-0.8,2-0.8c3.9,0,5.3,2.7,5.3,5c0,1.9-0.5,3.2-1.6,4.1c-1,0.7-2.3,0.8-3.4,0.8
		c-1.6,0-2-0.1-2.2-0.1c0-0.1,0-0.5,0-0.9L377.9,25L377.9,25z M393.8,45.1L393.8,45.1c-0.9-0.1-1.7-0.4-2.3-0.9
		c-2.4-2-4.3-4.9-6.9-9.1c-0.2-0.3-0.2-0.4-0.2-0.5c1.1-0.5,4.4-2.2,4.4-6c0-2.9-1.6-4.4-3-5.1c-1.7-0.9-3.9-1.1-5.9-1.1
		c-3.2,0-5.6,0.1-7.7,0.3h-0.1c-0.2,0.1-0.3,0.3-0.3,0.6c0,0.3,0.1,0.6,0.3,0.7h0.1l1.2,0.1c1.1,0.1,1.3,0.4,1.3,3.8v12.4
		c0,3.6-0.1,3.8-1.8,4.1l-1,0.1l-0.1,0.1c-0.2,0.2-0.2,0.6-0.2,0.8s0.2,0.4,0.3,0.5h0.1h0.1c1.5-0.1,2.8-0.1,4.3-0.1
		c1.4,0,2.6,0,4.1,0.1h0.1h0.1c0.3-0.1,0.3-0.5,0.3-0.6c0-0.3,0-0.6-0.2-0.7h-0.1l-0.8-0.1c-1.8-0.3-1.8-0.4-1.8-4.1v-4.3
		c0-0.5,0-0.5,1.4-0.5c1.3,0,1.8,0.3,2.2,1c0.5,0.8,1.1,1.7,1.7,2.7s1.2,1.9,1.7,2.6c2.4,3.4,4.2,4.5,7.4,4.5c0.7,0,1.3-0.1,1.6-0.2
		h0.1c0.2-0.1,0.2-0.3,0.2-0.5C394.1,45.4,394,45.2,393.8,45.1"/>
	<path class="st0" d="M428.1,24l0.9-0.1h0.1c0.2-0.1,0.3-0.4,0.2-0.7c0-0.1-0.1-0.5-0.3-0.7h-0.1h-0.1c-1.6,0.1-2.8,0.1-4.3,0.1
		s-2.7,0-4.3-0.1h-0.1H420c-0.3,0.1-0.3,0.6-0.3,0.7c0,0.3,0.1,0.5,0.2,0.7h0.1l1,0.1c1.8,0.1,1.9,0.4,1.9,4.2v12.3
		c0,3.7-0.1,3.9-1.9,4.1l-1,0.1l-0.1,0.1c-0.2,0.2-0.2,0.5-0.2,0.7c0,0.3,0.2,0.4,0.3,0.5h0.1h0.1c1.8-0.1,2.9-0.1,4.3-0.1
		s2.5,0,4.3,0.1h0.1h0.1c0.3-0.1,0.3-0.5,0.3-0.7c0-0.3-0.1-0.5-0.2-0.7l-1-0.1c-1.8-0.2-1.9-0.4-1.9-4.1V28.2
		C426.3,24.4,426.4,24.1,428.1,24"/>
	<path class="st0" d="M457.1,21.6c-0.1,0-0.2,0-0.3,0.1h-0.1v0.1c-0.4,0.8-0.6,0.8-2.5,0.8h-14.3c-1.5,0-2.2-0.1-2.4-0.9v-0.1
		l-0.1-0.1c-0.1-0.1-0.3-0.1-0.5-0.1c-0.1,0-0.4,0-0.5,0.1l-0.1,0.1v0.1c-0.2,1.4-0.7,3.6-1.3,5.1v0.1l0.1,0.1
		c0.2,0.4,0.9,0.6,1.3,0.3h0.1v-0.1c0.3-0.8,0.7-1.5,1.5-2.3c0.8-0.7,2.5-0.8,4.1-0.8h1.9c0.8,0,0.8,0,0.8,0.8v15.4
		c0,3.7-0.2,3.9-1.9,4l-1.2,0.1h-0.1c-0.2,0.1-0.3,0.4-0.3,0.7c0,0.2,0.1,0.5,0.3,0.6h0.1h0.1c2.1-0.1,3.4-0.1,4.8-0.1
		s2.5,0,4.5,0.1h0.1h0.1c0.3-0.1,0.3-0.5,0.3-0.7c0-0.3-0.1-0.5-0.2-0.7l-1.2-0.1c-1.7-0.1-1.8-0.4-1.8-4V25c0-0.3,0-0.7,0.1-0.7
		c0.1-0.1,0.4-0.1,0.7-0.1h2.4c1.8,0,3.1,0.3,3.8,0.8c0.3,0.2,0.6,1.1,0.8,2.3v0.1v0.1c0.1,0.2,0.4,0.2,0.6,0.2
		c0.3,0,0.6-0.1,0.7-0.4v-0.1v-0.1c-0.1-1,0.1-3.8,0.5-5.2v-0.1v-0.1C457.6,21.7,457.2,21.6,457.1,21.6"/>
</g>
<g>
	<line class="st0" x1="587.6" y1="20.2" x2="587.6" y2="119.6"/>
	<rect x="586.6" y="20.2" class="st0" width="2" height="99.4"/>
</g>
<g class="st1">
	<path class="st0" d="M626.5,56.1h5.9l6.1,11.1l6-11.1h6v27.4H645V66l-6.5,11.3h-0.1L632,66.1v17.4h-5.5V56.1z"/>
	<path class="st0" d="M656,56.1h17.6v5.1h-12v5.9h10.6v5.1h-10.6v6.1h12.2v5.1H656V56.1z"/>
	<path class="st0" d="M678.3,56.1h8.8c7.9,0,13.1,5.5,13.1,13.5V70c0,8-5.1,13.5-13.1,13.5h-8.8V56.1z M683.9,61.2v17.1h3.1
		c4.3,0,7.2-3,7.2-8.5v-0.2c0-5.4-2.9-8.5-7.2-8.5H683.9z"/>
	<path class="st0" d="M704.8,56.1h5.7v27.4h-5.7V56.1z"/>
	<path class="st0" d="M723.9,56h5.4l9.8,27.5h-5.9l-2-5.9h-9.4l-2,5.9h-5.7L723.9,56z M729.5,72.5l-3-8.9l-3,8.9H729.5z"/>
	<path class="st0" d="M759.1,56h5.4l9.8,27.5h-5.9l-2-5.9H757l-2,5.9h-5.7L759.1,56z M764.7,72.5l-3-8.9l-3,8.9H764.7z"/>
	<path class="st0" d="M777.7,56.1H788c3.2,0,5.7,0.9,7.4,2.6c1.5,1.5,2.3,3.6,2.3,6.3v0.2c0,4.1-2.1,6.8-5.1,8.1l5.8,10.2H792l-5-9
		h-3.6v9h-5.7V56.1z M787.6,69.5c2.9,0,4.5-1.6,4.5-4.1v0c0-2.7-1.7-4.1-4.6-4.1h-4.1v8.3H787.6z"/>
	<path class="st0" d="M807.4,61.4h-6.9v-5.2h19.4v5.2H813v22.1h-5.6V61.4z"/>
	<path class="st0" d="M821.3,79.8l3.4-4.2c1.8,1.6,4.1,3.1,6.8,3.1c2.2,0,3.5-1.1,3.5-2.7v0c0-1.4-0.8-2.2-4.7-3.7
		c-4.9-1.9-7.9-3.7-7.9-8.4v-0.1c0-4.8,3.7-8,9-8c3.2,0,6.3,1.1,8.8,3.4l-3.2,4.3c-1.7-1.4-3.7-2.5-5.8-2.5c-2,0-3.2,1-3.2,2.4v0
		c0,1.6,0.9,2.3,5.2,4.1c4.8,1.9,7.4,3.9,7.4,8.2v0.1c0,5.1-3.9,8.2-9.2,8.2C827.9,83.9,824.3,82.6,821.3,79.8z"/>
	<path class="st0" d="M861.3,56h5.4l9.8,27.5h-5.9l-2-5.9h-9.4l-2,5.9h-5.7L861.3,56z M866.9,72.5l-3-8.9l-3,8.9H866.9z"/>
	<path class="st0" d="M879.9,56.1h5.2l10.5,16v-16h5.6v27.4h-4.9L885.5,67v16.5h-5.6V56.1z"/>
	<path class="st0" d="M906.7,56.1h8.8c7.9,0,13.1,5.5,13.1,13.5V70c0,8-5.1,13.5-13.1,13.5h-8.8V56.1z M912.3,61.2v17.1h3.1
		c4.3,0,7.2-3,7.2-8.5v-0.2c0-5.4-2.9-8.5-7.2-8.5H912.3z"/>
	<path class="st0" d="M941.8,56.1h8.8c7.9,0,13.1,5.5,13.1,13.5V70c0,8-5.1,13.5-13.1,13.5h-8.8V56.1z M947.5,61.2v17.1h3.1
		c4.3,0,7.2-3,7.2-8.5v-0.2c0-5.4-2.9-8.5-7.2-8.5H947.5z"/>
	<path class="st0" d="M968.2,56.1h17.6v5.1h-12v5.9h10.6v5.1h-10.6v6.1H986v5.1h-17.8V56.1z"/>
	<path class="st0" d="M988.5,79.8l3.4-4.2c1.8,1.6,4.1,3.1,6.8,3.1c2.2,0,3.5-1.1,3.5-2.7v0c0-1.4-0.8-2.2-4.7-3.7
		c-4.9-1.9-7.9-3.7-7.9-8.4v-0.1c0-4.8,3.7-8,9-8c3.2,0,6.3,1.1,8.8,3.4l-3.2,4.3c-1.7-1.4-3.7-2.5-5.8-2.5c-2,0-3.2,1-3.2,2.4v0
		c0,1.6,0.9,2.3,5.2,4.1c4.8,1.9,7.4,3.9,7.4,8.2v0.1c0,5.1-3.9,8.2-9.2,8.2C995.1,83.9,991.5,82.6,988.5,79.8z"/>
	<path class="st0" d="M1012.2,56.1h5.7v27.4h-5.7V56.1z"/>
	<path class="st0" d="M1022.5,70v-0.4c0-8.1,5.4-13.9,12.8-13.9c3.8,0,6.5,1.1,9,3.2l-3.4,4.4c-1.4-1.3-3.1-2.3-5.7-2.3
		c-3.9,0-6.9,3.6-6.9,8.6v0.3c0,5.6,3.1,8.8,7.1,8.8c1.6,0,3.1-0.4,4.1-1.1v-4.9h-5v-4.9h10.4v12.7c-2.5,1.9-5.7,3.4-9.7,3.4
		C1027.9,83.9,1022.5,78.6,1022.5,70z"/>
	<path class="st0" d="M1049.8,56.1h5.2l10.5,16v-16h5.6v27.4h-4.9L1055.4,67v16.5h-5.6V56.1z"/>
</g>
</svg>
