<?xml version="1.0" encoding="utf-8"?>
<!-- Generator: Adobe Illustrator 24.3.0, SVG Export Plug-In . SVG Version: 6.00 Build 0)  -->
<svg version="1.1" id="Layer_1" xmlns="http://www.w3.org/2000/svg" xmlns:xlink="http://www.w3.org/1999/xlink" x="0px" y="0px"
	 viewBox="0 0 324 88.5" style="enable-background:new 0 0 324 88.5;" xml:space="preserve">
<path d="M302.2,25.1c6.5,1.4,7.8,4.4,7.8,8.7v23.9c-2.2-2.1-4.9-4.3-7.8-5.8V25.1z M288.2,52.2c0,1.1-0.2,3.5-3.5,3.8v1.1
	c7.2,2,13.5,6.2,18.9,11c2.6-5,6.1-6.9,11.2-8.1c7.7-1.9,9.2-3.8,9.2-20.3c0-12.9-1-16.6-9.8-22.8c-6.2,6.3-17,8.2-26,7.9V52.2z
	 M263.7,55.8l-3.5,2.6c-0.7,0.6-1.5,0.7-2,0.7c-1.8,0-2.3-2.5-2.3-5.3V26.7c2.4,2,5,3.6,7.8,4.9V55.8z M241.9,55.3
	c0,5.6,0.9,8.3,8.7,12.9c4.2-3.8,8.7-7.4,13.3-10.6c0,11.4,7.2,12.8,7.2,19.8s-7,9.5-13,9.5c-1.2,0-5.7-0.2-5.7-1.7
	c0-1.7,5.8-0.1,5.8-6.5c0.1-4.3-4.5-6-8.1-6c-3.6,0-7,2.2-7,6.2c0,8.8,11.7,9.7,18,9.7c9.8,0,21.8-5.9,21.8-17.1
	c0-3.5-1.3-5.6-2.5-7.3c-1.3-1.7-2.6-2.9-2.6-4.3V33c0-3.4,1.7-4.7,5.2-4.7v-1.1c-7.1-1.5-13.9-5-18.9-10.3
	c-9.4,9.4-22.2,8.9-22.2,15.7V55.3z M217.5,55.8l-3.5,2.6c-0.5,0.4-1.1,0.7-2,0.7c-1.8,0-2.3-1.9-2.3-4.5V25.2
	c2.2,2.1,5,4.7,7.8,5.9V55.8z M195.7,55.3c0,5.6,0.9,8.3,8.7,12.9c4.2-3.8,8.7-7.4,13.3-10.6c0.3,4.4,4.5,7.8,8.4,10.6
	c3.7-3.8,7.8-7.3,12.3-10.5l-0.6-1c-1.7,0.8-2.4,1.5-3.5,1.5c-2.5,0-2.8-3.6-2.8-6.3V33c0-3.4,1.7-4.7,5.2-4.7v-1.1
	c-7.1-1.5-14.3-6.3-17.6-10.3c-3.5,2.8-8.7,6.1-16.3,9.1c-5.2,2.1-7.1,4-7.1,8.5V55.3z M191.6,31.3L184.7,17l-19.4,6.7
	c-5.2,1.8-6.3,4.7-6.3,18.9c0,13,0,15.7,7.3,20.5c1.8,1.2,3.5,2.1,5.3,3.3c0.8,0.5,1.8,1.1,2.5,1.8c5.4-5.2,12.3-9.2,19-13.5
	l-0.7-1.2c-2.4,1.6-4.9,3-8.2,3c-5.3,0-11.8-3.7-11.8-12.8V22.4l0.7-0.2l6.9,15.2L191.6,31.3z M142.5,0c-3.1,0-6.7,2.2-6.7,6.1
	c0,3.5,3,6.7,5.8,9.1c3.9-2.1,7.7-4.9,7.7-8.7C149.3,2.2,145.9,0,142.5,0 M129.7,27.6l0.8,0.9c0.8-0.7,2.2-1.5,3.1-1.5
	c2,0,2,2.1,2,5v22.8c0,3.2,0.1,8.5,7.6,13.3l13.4-11.3l-0.5-0.9c-1.4,0.9-2.2,1.7-3.5,1.7c-1.6,0-3-1.3-3-3.6V32.1
	c0-3.6,1.4-4.9,5-4.9v-1.1c-4.8-1.9-8.5-5.5-11.9-9.1L129.7,27.6z M91.2,52.9c0,3.7-0.7,5.5-4.8,5.4v1.1c4.9,1.5,8.8,4.7,11.9,8.7
	c3.6-3.6,7.7-6.9,12.1-9.5l-0.4-1.2c-0.6,0.6-1.7,1-2.5,1c-1.8,0-2.3-1.5-2.3-4V30l3.1-2.2c0.5-0.4,1.1-0.7,2.1-0.7
	c2.3,0,2.7,3,2.7,6v27.5c0,16.8-4.3,22.5-13.7,26.7l0.7,1.3c4.7-2.5,9.5-4.9,13.8-7.9c10.8-7.7,13.3-16.9,13.3-30V32.5
	c0-6.3-1.1-9-6.5-15.5l-15.3,11.2V13.5c0-6.7,1.2-11.9,8.5-11.9h2.1V0h-0.6C103,0,92.6,3.2,91.3,12.4h-0.2c-0.9-3.4-3-6.7-4.7-8.4
	l-1,1c2.5,2,5.8,9.4,5.8,15.5V52.9z M84,31.3L77.1,17l-19.4,6.7c-5.2,1.8-6.3,4.7-6.3,18.9c0,13,0,15.7,7.3,20.5
	c1.8,1.2,3.5,2.1,5.3,3.3c0.8,0.5,1.8,1.1,2.5,1.8c5.4-5.2,12.3-9.2,19-13.5l-0.7-1.2c-2.4,1.6-4.9,3-8.2,3
	c-5.3,0-11.8-3.7-11.8-12.8V22.4l0.7-0.2l6.9,15.2L84,31.3z M28.3,55.4l-2.8,2c-0.7,0.5-1.3,0.8-2.2,0.8c-1.8,0-2.2-2.1-2.2-3.8
	V30.2c0-3.2-0.1-8.5-7.6-13.3L0,28.3l0.5,0.9c1.4-0.9,2.2-1.7,3.5-1.7c1.6,0,3,1.3,3,4.3V53c0,3.6-1.4,4.9-5,4.9V59
	c4.8,1.9,8.5,5.5,11,9.1l15.3-11.2c0.1,6.1,4,8.7,8.6,11.2l12.3-11.2l-0.7-1.2c-0.7,0.7-1.9,1.8-2.9,1.8c-1.8,0-3.3-1.2-3.3-4.5
	V32.2c0-3.5,0.7-5.1,3.3-5.1H47V26c-4.9-1.2-8.8-4.7-11.9-9c-1.6,3.8-4.8,7.7-9.5,9v1.1c1.9,0.1,2.6,1.2,2.6,3V55.4z"/>
</svg>
