<?xml version="1.0" encoding="UTF-8" standalone="no"?>
<!-- Created with Inkscape (http://www.inkscape.org/) -->

<svg
   xmlns:dc="http://purl.org/dc/elements/1.1/"
   xmlns:cc="http://creativecommons.org/ns#"
   xmlns:rdf="http://www.w3.org/1999/02/22-rdf-syntax-ns#"
   xmlns:svg="http://www.w3.org/2000/svg"
   xmlns="http://www.w3.org/2000/svg"
   xmlns:sodipodi="http://sodipodi.sourceforge.net/DTD/sodipodi-0.dtd"
   xmlns:inkscape="http://www.inkscape.org/namespaces/inkscape"
   width="504"
   height="77"
   viewBox="0 0 133.34999 20.372917"
   version="1.1"
   id="svg1167"
   inkscape:version="0.92.3 (2405546, 2018-03-11)"
   sodipodi:docname="logo-white.svg">
  <defs
     id="defs1161">
    <clipPath
       clipPathUnits="userSpaceOnUse"
       id="clipPath40">
      <path
         d="M 0,728.5 H 1031.811 V 0 H 0 Z"
         id="path38"
         inkscape:connector-curvature="0" />
    </clipPath>
  </defs>
  <sodipodi:namedview
     id="base"
     pagecolor="#ffffff"
     bordercolor="#666666"
     borderopacity="1.0"
     inkscape:pageopacity="0.0"
     inkscape:pageshadow="2"
     inkscape:zoom="2.8"
     inkscape:cx="415.96869"
     inkscape:cy="15.058834"
     inkscape:document-units="mm"
     inkscape:current-layer="g214"
     showgrid="false"
     units="px"
     inkscape:window-width="1694"
     inkscape:window-height="1078"
     inkscape:window-x="1788"
     inkscape:window-y="523"
     inkscape:window-maximized="0" />
  <metadata
     id="metadata1164">
    <rdf:RDF>
      <cc:Work
         rdf:about="">
        <dc:format>image/svg+xml</dc:format>
        <dc:type
           rdf:resource="http://purl.org/dc/dcmitype/StillImage" />
        <dc:title></dc:title>
      </cc:Work>
    </rdf:RDF>
  </metadata>
  <g
     inkscape:label="Layer 1"
     inkscape:groupmode="layer"
     id="layer1"
     transform="translate(0,-276.62706)">
    <path
       d="m 5.5936146,296.89713 h -1.344083 v -19.8501 h 1.344083 z"
       style="fill:#f6f1f3;fill-opacity:1;fill-rule:nonzero;stroke:none;stroke-width:0.35277775"
       id="path14"
       inkscape:connector-curvature="0" />
    <path
       d="M 1.4830476,296.89713 H 0.13967061 v -19.8501 H 1.4830476 Z"
       style="fill:#f6f1f3;fill-opacity:1;fill-rule:nonzero;stroke:none;stroke-width:0.35277775"
       id="path16"
       inkscape:connector-curvature="0" />
    <path
       d="m 3.5376256,296.89713 h -1.343378 v -19.8501 h 1.343378 z"
       style="fill:#f6f1f3;fill-opacity:1;fill-rule:nonzero;stroke:none;stroke-width:0.35277775"
       id="path18"
       inkscape:connector-curvature="0" />
    <path
       d="m 20.09913,296.89713 h -1.344083 v -19.8501 h 1.344083 z"
       style="fill:#f6f1f3;fill-opacity:1;fill-rule:nonzero;stroke:none;stroke-width:0.35277775"
       id="path20"
       inkscape:connector-curvature="0" />
    <path
       d="m 15.988564,296.89713 h -1.344083 v -19.8501 h 1.344083 z"
       style="fill:#f6f1f3;fill-opacity:1;fill-rule:nonzero;stroke:none;stroke-width:0.35277775"
       id="path22"
       inkscape:connector-curvature="0" />
    <path
       d="m 18.044553,296.89713 h -1.344084 v -19.8501 h 1.344084 z"
       style="fill:#f6f1f3;fill-opacity:1;fill-rule:nonzero;stroke:none;stroke-width:0.35277775"
       id="path24"
       inkscape:connector-curvature="0" />
    <g
       id="g26"
       transform="matrix(0.35277777,0,0,-0.35277777,13.9034,287.89869)">
      <path
         d="M 0,0 -21.252,30.789 V 6.684 L 0,-24.501 Z"
         style="fill:#f6f1f3;fill-opacity:1;fill-rule:nonzero;stroke:none"
         id="path28"
         inkscape:connector-curvature="0" />
    </g>
    <g
       id="g30"
       transform="matrix(0.35277777,0,0,-0.35277777,63.105563,280.95059)">
      <path
         d="M 0,0 -5.549,5.552 0,11.1 5.549,5.552 Z"
         style="fill:#f6f1f3;fill-opacity:1;fill-rule:nonzero;stroke:none"
         id="path32"
         inkscape:connector-curvature="0" />
    </g>
    <g
       transform="matrix(0.35277777,0,0,-0.35277777,-15.961107,313.48333)"
       id="g34">
      <g
         transform="translate(224.0981,92.0908)"
         id="g42">
        <path
           inkscape:connector-curvature="0"
           id="path44"
           style="fill:#f6f1f3;fill-opacity:1;fill-rule:nonzero;stroke:none"
           d="m 0,0 c -3.093,0 -5.598,-2.505 -5.598,-5.594 0,-3.091 2.505,-5.594 5.598,-5.594 3.09,0 5.592,2.503 5.592,5.594 C 5.592,-2.505 3.09,0 0,0 m 0,-3.809 c 0.983,0 1.784,-0.8 1.784,-1.785 0,-0.985 -0.801,-1.786 -1.784,-1.786 -0.986,0 -1.789,0.801 -1.789,1.786 0,0.985 0.803,1.785 1.789,1.785" />
      </g>
      <g
         transform="translate(224.0981,80.9023)"
         id="g46">
        <path
           inkscape:connector-curvature="0"
           id="path48"
           style="fill:#f6f1f3;fill-opacity:1;fill-rule:nonzero;stroke:none"
           d="m 0,0 c -3.093,0 -5.598,-2.507 -5.598,-5.6 0,-3.088 2.505,-5.593 5.598,-5.593 3.09,0 5.592,2.505 5.592,5.593 C 5.592,-2.507 3.09,0 0,0 m 0,-3.809 c 0.983,0 1.784,-0.803 1.784,-1.791 0,-0.984 -0.801,-1.785 -1.784,-1.785 -0.986,0 -1.789,0.801 -1.789,1.785 0,0.988 0.803,1.791 1.789,1.791" />
      </g>
      <g
         transform="translate(224.0981,69.709)"
         id="g50">
        <path
           inkscape:connector-curvature="0"
           id="path52"
           style="fill:#f6f1f3;fill-opacity:1;fill-rule:nonzero;stroke:none"
           d="m 0,0 c -3.093,0 -5.598,-2.506 -5.598,-5.597 0,-3.09 2.505,-5.595 5.598,-5.595 3.09,0 5.592,2.505 5.592,5.595 C 5.592,-2.506 3.09,0 0,0 m 0,-3.809 c 0.983,0 1.784,-0.801 1.784,-1.788 0,-0.985 -0.801,-1.787 -1.784,-1.787 -0.986,0 -1.789,0.802 -1.789,1.787 0,0.987 0.803,1.788 1.789,1.788" />
      </g>
      <g
         transform="translate(224.0981,58.4346)"
         id="g54">
        <path
           inkscape:connector-curvature="0"
           id="path56"
           style="fill:#f6f1f3;fill-opacity:1;fill-rule:nonzero;stroke:none"
           d="m 0,0 c -3.093,0 -5.598,-2.505 -5.598,-5.594 0,-3.093 2.505,-5.595 5.598,-5.595 3.09,0 5.592,2.502 5.592,5.595 C 5.592,-2.505 3.09,0 0,0 m 0,-3.809 c 0.983,0 1.784,-0.8 1.784,-1.785 0,-0.985 -0.801,-1.787 -1.784,-1.787 -0.986,0 -1.789,0.802 -1.789,1.787 0,0.985 0.803,1.785 1.789,1.785" />
      </g>
      <g
         transform="translate(178.4751,47.9531)"
         id="g58">
        <path
           inkscape:connector-curvature="0"
           id="path60"
           style="fill:none;stroke:#f6f1f3;stroke-width:3.80900002;stroke-linecap:butt;stroke-linejoin:miter;stroke-miterlimit:10;stroke-dasharray:none;stroke-opacity:1"
           d="M 0,0 6.333,6.329 12.665,0" />
      </g>
      <g
         transform="translate(178.4751,55.7695)"
         id="g62">
        <path
           inkscape:connector-curvature="0"
           id="path64"
           style="fill:none;stroke:#f6f1f3;stroke-width:3.80900002;stroke-linecap:butt;stroke-linejoin:miter;stroke-miterlimit:10;stroke-dasharray:none;stroke-opacity:1"
           d="M 0,0 6.333,6.333 12.665,0" />
      </g>
      <g
         transform="translate(178.4751,63.5859)"
         id="g66">
        <path
           inkscape:connector-curvature="0"
           id="path68"
           style="fill:none;stroke:#f6f1f3;stroke-width:3.80900002;stroke-linecap:butt;stroke-linejoin:miter;stroke-miterlimit:10;stroke-dasharray:none;stroke-opacity:1"
           d="M 0,0 6.333,6.333 12.665,0" />
      </g>
      <g
         transform="translate(178.4751,71.4023)"
         id="g70">
        <path
           inkscape:connector-curvature="0"
           id="path72"
           style="fill:none;stroke:#f6f1f3;stroke-width:3.80900002;stroke-linecap:butt;stroke-linejoin:miter;stroke-miterlimit:10;stroke-dasharray:none;stroke-opacity:1"
           d="M 0,0 6.333,6.335 12.665,0" />
      </g>
      <g
         transform="translate(178.4751,79.2207)"
         id="g74">
        <path
           inkscape:connector-curvature="0"
           id="path76"
           style="fill:none;stroke:#f6f1f3;stroke-width:3.80900002;stroke-linecap:butt;stroke-linejoin:miter;stroke-miterlimit:10;stroke-dasharray:none;stroke-opacity:1"
           d="M 0,0 6.333,6.333 12.665,0.002" />
      </g>
      <g
         transform="translate(178.4751,87.0391)"
         id="g78">
        <path
           inkscape:connector-curvature="0"
           id="path80"
           style="fill:none;stroke:#f6f1f3;stroke-width:3.80900002;stroke-linecap:butt;stroke-linejoin:miter;stroke-miterlimit:10;stroke-dasharray:none;stroke-opacity:1"
           d="M 0,0 6.333,6.333 12.665,0" />
      </g>
      <g
         transform="translate(199.7925,93.5039)"
         id="g82">
        <path
           inkscape:connector-curvature="0"
           id="path84"
           style="fill:#f6f1f3;fill-opacity:1;fill-rule:nonzero;stroke:none"
           d="m 0,0 -5.003,5.01 -4.992,-4.992 -4.992,4.992 -4.994,-4.986 -4.99,4.992 -5.009,-4.968 -6.309,6.307 2.695,2.694 3.627,-3.628 5.006,4.97 4.983,-4.986 4.995,4.99 4.988,-4.99 4.992,4.991 5.005,-5.01 3.663,3.663 2.692,-2.694 z" />
      </g>
      <g
         transform="translate(128.7065,97.6143)"
         id="g86">
        <path
           inkscape:connector-curvature="0"
           id="path88"
           style="fill:#f6f1f3;fill-opacity:1;fill-rule:nonzero;stroke:none"
           d="m 0,0 c 0,-3.091 -2.506,-5.599 -5.598,-5.599 -3.09,0 -5.595,2.508 -5.595,5.599 0,3.09 2.505,5.596 5.595,5.596 C -2.506,5.596 0,3.09 0,0" />
      </g>
      <g
         transform="translate(139.897,97.6143)"
         id="g90">
        <path
           inkscape:connector-curvature="0"
           id="path92"
           style="fill:#f6f1f3;fill-opacity:1;fill-rule:nonzero;stroke:none"
           d="m 0,0 c 0,-3.091 -2.504,-5.599 -5.595,-5.599 -3.093,0 -5.595,2.508 -5.595,5.599 0,3.09 2.502,5.596 5.595,5.596 C -2.504,5.596 0,3.09 0,0" />
      </g>
      <g
         transform="translate(151.0869,97.6143)"
         id="g94">
        <path
           inkscape:connector-curvature="0"
           id="path96"
           style="fill:#f6f1f3;fill-opacity:1;fill-rule:nonzero;stroke:none"
           d="m 0,0 c 0,-3.091 -2.504,-5.599 -5.598,-5.599 -3.088,0 -5.592,2.508 -5.592,5.599 0,3.09 2.504,5.596 5.592,5.596 C -2.504,5.596 0,3.09 0,0" />
      </g>
      <g
         transform="translate(123.1089,92.0156)"
         id="g98">
        <path
           inkscape:connector-curvature="0"
           id="path100"
           style="fill:#f6f1f3;fill-opacity:1;fill-rule:nonzero;stroke:none"
           d="m 0,0 c -3.091,0 -5.595,-2.505 -5.595,-5.592 0,-3.093 2.504,-5.597 5.595,-5.597 3.091,0 5.598,2.504 5.598,5.597 C 5.598,-2.505 3.091,0 0,0 m 0,-3.808 c 0.988,0 1.788,-0.8 1.788,-1.784 0,-0.987 -0.8,-1.788 -1.788,-1.788 -0.984,0 -1.786,0.801 -1.786,1.788 0,0.984 0.802,1.784 1.786,1.784" />
      </g>
      <g
         transform="translate(128.7065,75.2314)"
         id="g102">
        <path
           inkscape:connector-curvature="0"
           id="path104"
           style="fill:#f6f1f3;fill-opacity:1;fill-rule:nonzero;stroke:none"
           d="m 0,0 c 0,-3.092 -2.506,-5.596 -5.598,-5.596 -3.09,0 -5.595,2.504 -5.595,5.596 0,3.089 2.505,5.595 5.595,5.595 C -2.506,5.595 0,3.089 0,0" />
      </g>
      <g
         transform="translate(139.897,75.2314)"
         id="g106">
        <path
           inkscape:connector-curvature="0"
           id="path108"
           style="fill:#f6f1f3;fill-opacity:1;fill-rule:nonzero;stroke:none"
           d="m 0,0 c 0,-3.092 -2.504,-5.596 -5.595,-5.596 -3.093,0 -5.595,2.504 -5.595,5.596 0,3.089 2.502,5.595 5.595,5.595 C -2.504,5.595 0,3.089 0,0" />
      </g>
      <g
         transform="translate(151.0869,75.2314)"
         id="g110">
        <path
           inkscape:connector-curvature="0"
           id="path112"
           style="fill:#f6f1f3;fill-opacity:1;fill-rule:nonzero;stroke:none"
           d="m 0,0 c 0,-3.092 -2.504,-5.596 -5.598,-5.596 -3.088,0 -5.592,2.504 -5.592,5.596 0,3.089 2.504,5.595 5.592,5.595 C -2.504,5.595 0,3.089 0,0" />
      </g>
      <g
         transform="translate(128.7065,64.0381)"
         id="g114">
        <path
           inkscape:connector-curvature="0"
           id="path116"
           style="fill:#f6f1f3;fill-opacity:1;fill-rule:nonzero;stroke:none"
           d="m 0,0 c 0,-3.089 -2.506,-5.595 -5.598,-5.595 -3.09,0 -5.595,2.506 -5.595,5.595 0,3.089 2.505,5.598 5.595,5.598 C -2.506,5.598 0,3.089 0,0" />
      </g>
      <g
         transform="translate(128.7065,52.7676)"
         id="g118">
        <path
           inkscape:connector-curvature="0"
           id="path120"
           style="fill:#f6f1f3;fill-opacity:1;fill-rule:nonzero;stroke:none"
           d="m 0,0 c 0,-3.092 -2.506,-5.598 -5.598,-5.598 -3.09,0 -5.595,2.506 -5.595,5.598 0,3.089 2.505,5.595 5.595,5.595 C -2.506,5.595 0,3.089 0,0" />
      </g>
      <g
         transform="translate(134.3018,58.3623)"
         id="g122">
        <path
           inkscape:connector-curvature="0"
           id="path124"
           style="fill:#f6f1f3;fill-opacity:1;fill-rule:nonzero;stroke:none"
           d="m 0,0 c -3.093,0 -5.595,-2.506 -5.595,-5.595 0,-3.092 2.502,-5.597 5.595,-5.597 3.091,0 5.595,2.505 5.595,5.597 C 5.595,-2.506 3.091,0 0,0 m 0,-3.81 c 0.984,0 1.785,-0.8 1.785,-1.785 0,-0.985 -0.801,-1.788 -1.785,-1.788 -0.987,0 -1.788,0.803 -1.788,1.788 0,0.985 0.801,1.785 1.788,1.785" />
      </g>
      <g
         transform="translate(151.0869,52.7676)"
         id="g126">
        <path
           inkscape:connector-curvature="0"
           id="path128"
           style="fill:#f6f1f3;fill-opacity:1;fill-rule:nonzero;stroke:none"
           d="m 0,0 c 0,-3.092 -2.504,-5.598 -5.598,-5.598 -3.088,0 -5.592,2.506 -5.592,5.598 0,3.089 2.504,5.595 5.592,5.595 C -2.504,5.595 0,3.089 0,0" />
      </g>
      <g
         transform="translate(327.813,97.6143)"
         id="g130">
        <path
           inkscape:connector-curvature="0"
           id="path132"
           style="fill:#f6f1f3;fill-opacity:1;fill-rule:nonzero;stroke:none"
           d="m 0,0 c 0,-3.091 -2.504,-5.599 -5.595,-5.599 -3.091,0 -5.595,2.508 -5.595,5.599 0,3.09 2.504,5.596 5.595,5.596 C -2.504,5.596 0,3.09 0,0" />
      </g>
      <g
         transform="translate(339.0024,97.6143)"
         id="g134">
        <path
           inkscape:connector-curvature="0"
           id="path136"
           style="fill:#f6f1f3;fill-opacity:1;fill-rule:nonzero;stroke:none"
           d="m 0,0 c 0,-3.091 -2.502,-5.599 -5.594,-5.599 -3.092,0 -5.595,2.508 -5.595,5.599 0,3.09 2.503,5.596 5.595,5.596 C -2.502,5.596 0,3.09 0,0" />
      </g>
      <g
         transform="translate(350.1953,97.6143)"
         id="g138">
        <path
           inkscape:connector-curvature="0"
           id="path140"
           style="fill:#f6f1f3;fill-opacity:1;fill-rule:nonzero;stroke:none"
           d="m 0,0 c 0,-3.091 -2.504,-5.599 -5.595,-5.599 -3.091,0 -5.598,2.508 -5.598,5.599 0,3.09 2.507,5.596 5.598,5.596 C -2.504,5.596 0,3.09 0,0" />
      </g>
      <g
         transform="translate(322.2178,92.0156)"
         id="g142">
        <path
           inkscape:connector-curvature="0"
           id="path144"
           style="fill:#f6f1f3;fill-opacity:1;fill-rule:nonzero;stroke:none"
           d="m 0,0 c -3.09,0 -5.595,-2.505 -5.595,-5.592 0,-3.093 2.505,-5.597 5.595,-5.597 3.091,0 5.595,2.504 5.595,5.597 C 5.595,-2.505 3.091,0 0,0 m 0,-3.809 c 0.985,0 1.787,-0.799 1.787,-1.783 0,-0.986 -0.802,-1.789 -1.787,-1.789 -0.985,0 -1.786,0.803 -1.786,1.789 0,0.984 0.801,1.783 1.786,1.783" />
      </g>
      <g
         transform="translate(327.813,75.2314)"
         id="g146">
        <path
           inkscape:connector-curvature="0"
           id="path148"
           style="fill:#f6f1f3;fill-opacity:1;fill-rule:nonzero;stroke:none"
           d="m 0,0 c 0,-3.092 -2.504,-5.596 -5.595,-5.596 -3.091,0 -5.595,2.504 -5.595,5.596 0,3.089 2.504,5.595 5.595,5.595 C -2.504,5.595 0,3.089 0,0" />
      </g>
      <g
         transform="translate(339.0024,75.2314)"
         id="g150">
        <path
           inkscape:connector-curvature="0"
           id="path152"
           style="fill:#f6f1f3;fill-opacity:1;fill-rule:nonzero;stroke:none"
           d="m 0,0 c 0,-3.092 -2.502,-5.596 -5.594,-5.596 -3.092,0 -5.595,2.504 -5.595,5.596 0,3.089 2.503,5.595 5.595,5.595 C -2.502,5.595 0,3.089 0,0" />
      </g>
      <g
         transform="translate(350.1953,75.2314)"
         id="g154">
        <path
           inkscape:connector-curvature="0"
           id="path156"
           style="fill:#f6f1f3;fill-opacity:1;fill-rule:nonzero;stroke:none"
           d="m 0,0 c 0,-3.092 -2.504,-5.596 -5.595,-5.596 -3.091,0 -5.598,2.504 -5.598,5.596 0,3.089 2.507,5.595 5.598,5.595 C -2.504,5.595 0,3.089 0,0" />
      </g>
      <g
         transform="translate(327.813,64.0381)"
         id="g158">
        <path
           inkscape:connector-curvature="0"
           id="path160"
           style="fill:#f6f1f3;fill-opacity:1;fill-rule:nonzero;stroke:none"
           d="m 0,0 c 0,-3.089 -2.504,-5.595 -5.595,-5.595 -3.091,0 -5.595,2.506 -5.595,5.595 0,3.089 2.504,5.598 5.595,5.598 C -2.504,5.598 0,3.089 0,0" />
      </g>
      <g
         transform="translate(327.813,52.7676)"
         id="g162">
        <path
           inkscape:connector-curvature="0"
           id="path164"
           style="fill:#f6f1f3;fill-opacity:1;fill-rule:nonzero;stroke:none"
           d="m 0,0 c 0,-3.092 -2.504,-5.598 -5.595,-5.598 -3.091,0 -5.595,2.506 -5.595,5.598 0,3.089 2.504,5.595 5.595,5.595 C -2.504,5.595 0,3.089 0,0" />
      </g>
      <g
         transform="translate(333.4082,58.3623)"
         id="g166">
        <path
           inkscape:connector-curvature="0"
           id="path168"
           style="fill:#f6f1f3;fill-opacity:1;fill-rule:nonzero;stroke:none"
           d="m 0,0 c -3.092,0 -5.595,-2.506 -5.595,-5.595 0,-3.092 2.503,-5.597 5.595,-5.597 3.092,0 5.594,2.505 5.594,5.597 C 5.594,-2.506 3.092,0 0,0 m 0,-3.809 c 0.984,0 1.786,-0.801 1.786,-1.786 0,-0.986 -0.802,-1.789 -1.786,-1.789 -0.985,0 -1.787,0.803 -1.787,1.789 0,0.985 0.802,1.786 1.787,1.786" />
      </g>
      <g
         transform="translate(350.1953,52.7676)"
         id="g170">
        <path
           inkscape:connector-curvature="0"
           id="path172"
           style="fill:#f6f1f3;fill-opacity:1;fill-rule:nonzero;stroke:none"
           d="m 0,0 c 0,-3.092 -2.504,-5.598 -5.595,-5.598 -3.091,0 -5.598,2.506 -5.598,5.598 0,3.089 2.507,5.595 5.598,5.595 C -2.504,5.595 0,3.089 0,0" />
      </g>
      <path
         inkscape:connector-curvature="0"
         id="path174"
         style="fill:#f6f1f3;fill-opacity:1;fill-rule:nonzero;stroke:none"
         d="m 382.266,52.856 h -14.459 v 3.808 h 14.459 z" />
      <path
         inkscape:connector-curvature="0"
         id="path176"
         style="fill:#f6f1f3;fill-opacity:1;fill-rule:nonzero;stroke:none"
         d="m 382.266,47.029 h -14.459 v 3.81 h 14.459 z" />
      <path
         inkscape:connector-curvature="0"
         id="path178"
         style="fill:#f6f1f3;fill-opacity:1;fill-rule:nonzero;stroke:none"
         d="m 382.266,64.506 h -14.459 v 3.81 h 14.459 z" />
      <path
         inkscape:connector-curvature="0"
         id="path180"
         style="fill:#f6f1f3;fill-opacity:1;fill-rule:nonzero;stroke:none"
         d="m 382.266,58.681 h -14.459 v 3.81 h 14.459 z" />
      <path
         inkscape:connector-curvature="0"
         id="path182"
         style="fill:#f6f1f3;fill-opacity:1;fill-rule:nonzero;stroke:none"
         d="m 382.266,76.157 h -14.459 v 3.808 h 14.459 z" />
      <path
         inkscape:connector-curvature="0"
         id="path184"
         style="fill:#f6f1f3;fill-opacity:1;fill-rule:nonzero;stroke:none"
         d="m 382.266,70.331 h -14.459 v 3.81 h 14.459 z" />
      <path
         inkscape:connector-curvature="0"
         id="path186"
         style="fill:#f6f1f3;fill-opacity:1;fill-rule:nonzero;stroke:none"
         d="m 382.266,87.808 h -14.459 v 3.808 h 14.459 z" />
      <path
         inkscape:connector-curvature="0"
         id="path188"
         style="fill:#f6f1f3;fill-opacity:1;fill-rule:nonzero;stroke:none"
         d="m 382.266,81.98 h -14.459 v 3.81 h 14.459 z" />
      <path
         inkscape:connector-curvature="0"
         id="path190"
         style="fill:#f6f1f3;fill-opacity:1;fill-rule:nonzero;stroke:none"
         d="m 382.266,99.457 h -14.459 v 3.808 h 14.459 z" />
      <path
         inkscape:connector-curvature="0"
         id="path192"
         style="fill:#f6f1f3;fill-opacity:1;fill-rule:nonzero;stroke:none"
         d="m 382.266,93.634 h -14.459 v 3.808 h 14.459 z" />
      <path
         inkscape:connector-curvature="0"
         id="path194"
         style="fill:#f6f1f3;fill-opacity:1;fill-rule:nonzero;stroke:none"
         d="m 422.123,52.856 h -14.458 v 3.808 h 14.458 z" />
      <path
         inkscape:connector-curvature="0"
         id="path196"
         style="fill:#f6f1f3;fill-opacity:1;fill-rule:nonzero;stroke:none"
         d="m 422.123,47.029 h -14.458 v 3.81 h 14.458 z" />
      <path
         inkscape:connector-curvature="0"
         id="path198"
         style="fill:#f6f1f3;fill-opacity:1;fill-rule:nonzero;stroke:none"
         d="m 422.123,64.506 h -14.458 v 3.81 h 14.458 z" />
      <path
         inkscape:connector-curvature="0"
         id="path200"
         style="fill:#f6f1f3;fill-opacity:1;fill-rule:nonzero;stroke:none"
         d="m 422.123,58.681 h -14.458 v 3.81 h 14.458 z" />
      <path
         inkscape:connector-curvature="0"
         id="path202"
         style="fill:#f6f1f3;fill-opacity:1;fill-rule:nonzero;stroke:none"
         d="m 422.123,76.157 h -14.458 v 3.808 h 14.458 z" />
      <path
         inkscape:connector-curvature="0"
         id="path204"
         style="fill:#f6f1f3;fill-opacity:1;fill-rule:nonzero;stroke:none"
         d="m 422.123,70.331 h -14.458 v 3.81 h 14.458 z" />
      <path
         inkscape:connector-curvature="0"
         id="path206"
         style="fill:#f6f1f3;fill-opacity:1;fill-rule:nonzero;stroke:none"
         d="m 422.123,87.808 h -14.458 v 3.808 h 14.458 z" />
      <path
         inkscape:connector-curvature="0"
         id="path208"
         style="fill:#f6f1f3;fill-opacity:1;fill-rule:nonzero;stroke:none"
         d="m 422.123,81.98 h -14.458 v 3.81 h 14.458 z" />
      <path
         inkscape:connector-curvature="0"
         id="path210"
         style="fill:#f6f1f3;fill-opacity:1;fill-rule:nonzero;stroke:none"
         d="m 422.123,99.457 h -14.458 v 3.808 h 14.458 z" />
      <path
         inkscape:connector-curvature="0"
         id="path212"
         style="fill:#f6f1f3;fill-opacity:1;fill-rule:nonzero;stroke:none"
         d="m 422.123,93.634 h -14.458 v 3.808 h 14.458 z" />
      <g
         transform="translate(405.5918,72.5234)"
         id="g214">
        <path
           inkscape:connector-curvature="0"
           id="path216"
           style="fill:#f6f1f3;fill-opacity:1;fill-rule:nonzero;stroke:none"
           d="M 0,0 -21.252,30.789 V 6.684 L 0,-24.501 Z" />
      </g>
      <path
         inkscape:connector-curvature="0"
         id="path218"
         style="fill:#f6f1f3;fill-opacity:1;fill-rule:nonzero;stroke:none"
         d="m 301.146,52.937 h -55.195 v 3.808 h 55.195 z" />
      <path
         inkscape:connector-curvature="0"
         id="path220"
         style="fill:#f6f1f3;fill-opacity:1;fill-rule:nonzero;stroke:none"
         d="m 301.146,47.111 h -55.195 v 3.81 h 55.195 z" />
      <path
         inkscape:connector-curvature="0"
         id="path222"
         style="fill:#f6f1f3;fill-opacity:1;fill-rule:nonzero;stroke:none"
         d="m 301.146,58.764 h -55.195 v 3.809 h 55.195 z" />
      <path
         inkscape:connector-curvature="0"
         id="path224"
         style="fill:#f6f1f3;fill-opacity:1;fill-rule:nonzero;stroke:none"
         d="m 301.146,87.89 h -55.195 v 3.808 h 55.195 z" />
      <path
         inkscape:connector-curvature="0"
         id="path226"
         style="fill:#f6f1f3;fill-opacity:1;fill-rule:nonzero;stroke:none"
         d="m 301.146,99.541 h -55.195 v 3.808 h 55.195 z" />
      <path
         inkscape:connector-curvature="0"
         id="path228"
         style="fill:#f6f1f3;fill-opacity:1;fill-rule:nonzero;stroke:none"
         d="m 301.146,93.714 h -55.195 v 3.811 h 55.195 z" />
      <g
         transform="translate(270.3276,64.6768)"
         id="g230">
        <path
           inkscape:connector-curvature="0"
           id="path232"
           style="fill:#f6f1f3;fill-opacity:1;fill-rule:nonzero;stroke:none"
           d="M 0,0 30.79,21.254 H 6.683 L -24.5,0 Z" />
      </g>
    </g>
  </g>
</svg>
